<?xml version="1.0" encoding="UTF-8" standalone="no"?>
<!DOCTYPE svg PUBLIC "-//W3C//DTD SVG 1.1//EN" "http://www.w3.org/Graphics/SVG/1.1/DTD/svg11.dtd">
<svg xmlns="http://www.w3.org/2000/svg" version="1.1" viewBox="0 0 852 352">
<path fill="rgb(47,22,24)" fill-opacity="0.000" d="M 0.00 0.00 c 284.00 0.00 568.00 0.00 852.00 0.00 0.00 117.33 0.00 234.67 0.00 352.00 -284.00 0.00 -568.00 0.00 -852.00 0.00 0.00 -117.33 0.00 -234.67 0.00 -352.00 Z M 616.08 152.74 c -1.47 0.38 -1.74 -0.03 -0.83 -1.24 0.80 -1.06 0.45 -1.85 -1.05 -2.35 -1.30 -0.43 -2.29 -0.05 -2.96 1.15 -0.44 0.77 -0.87 1.21 -1.30 1.33 -0.45 0.12 -0.72 -0.05 -0.80 -0.51 -0.42 -2.11 -1.19 -2.79 -2.33 -2.06 -1.23 0.80 -2.35 1.76 -3.37 2.88 -0.59 0.51 -1.34 -0.12 -2.25 -1.88 -0.67 -1.28 -1.39 -1.53 -2.15 -0.73 -0.24 0.24 -0.40 0.52 -0.49 0.84 -0.28 0.98 -0.90 2.15 -1.86 3.52 -0.57 0.81 -1.19 0.26 -1.85 -1.63 -0.25 -0.95 -0.81 -1.21 -1.69 -0.75 -1.58 0.82 -2.29 2.22 -2.15 4.19 0.17 2.28 -0.27 3.43 -1.31 3.44 -1.03 0.01 -2.04 -0.65 -3.04 -1.96 -0.87 -1.16 -1.63 -1.09 -2.28 0.21 -0.83 1.68 -0.50 3.50 1.00 5.46 0.99 1.29 0.76 2.30 -0.70 3.02 -1.00 0.49 -2.06 0.35 -3.17 -0.42 -0.82 -0.57 -1.31 -0.36 -1.45 0.63 -0.23 1.62 -0.06 3.09 0.50 4.41 0.13 0.31 0.14 0.62 0.02 0.93 -0.51 1.34 -1.55 2.37 -3.11 3.07 -0.31 0.14 -0.58 0.32 -0.83 0.55 -1.51 1.40 -2.59 3.29 -3.25 5.68 -0.09 0.32 -0.09 0.64 0.00 0.96 0.79 2.96 -0.19 5.02 -2.94 6.21 -1.19 0.51 -2.02 0.87 -2.49 1.10 -0.30 0.14 -0.54 0.35 -0.71 0.64 -1.75 2.87 -1.89 5.73 -0.41 8.57 0.16 0.29 0.40 0.46 0.73 0.51 2.33 0.34 4.51 1.32 6.55 2.94 1.04 0.82 1.32 0.61 0.85 -0.62 -0.40 -0.40 -0.99 -1.07 -1.77 -2.02 -0.70 -0.83 -0.44 -1.49 0.77 -1.97 0.32 -0.10 0.55 -0.30 0.69 -0.60 0.27 -0.56 0.55 -0.82 0.85 -0.79 0.33 0.03 0.58 0.19 0.75 0.48 0.49 0.87 1.43 1.79 2.81 2.76 0.71 0.50 1.02 0.29 0.93 -0.63 -0.04 -0.33 -0.18 -0.61 -0.42 -0.84 -0.44 -0.39 -0.96 -0.99 -1.57 -1.80 -0.22 -0.29 -0.19 -0.56 0.09 -0.79 2.49 -2.29 4.82 -3.81 6.97 -4.57 1.30 -0.45 2.32 -0.30 3.05 0.47 0.87 0.75 1.02 1.63 0.44 2.63 -1.14 1.95 -1.95 3.82 -2.42 5.61 -0.09 0.32 -0.05 0.63 0.10 0.92 0.55 0.74 1.05 0.67 1.52 -0.19 0.74 -1.36 1.31 -2.11 1.72 -2.26 0.31 -0.12 0.46 -0.01 0.45 0.32 -0.06 1.37 -0.76 2.71 -2.12 4.03 -1.41 1.36 -1.24 2.47 0.51 3.35 2.55 1.27 5.11 2.20 7.69 2.81 1.19 0.28 1.46 -0.10 0.81 -1.14 -0.67 -0.75 -1.67 -1.47 -3.00 -2.17 -0.84 -0.45 -0.87 -0.93 -0.06 -1.44 0.32 -0.15 2.18 0.41 5.56 1.69 0.65 0.24 0.90 0.03 0.74 -0.64 -0.08 -0.33 -0.24 -0.60 -0.49 -0.82 -1.35 -1.22 -2.54 -2.63 -3.56 -4.23 -0.03 -0.05 0.28 -3.16 0.94 -9.31 0.42 -3.97 0.01 -7.30 -1.23 -9.99 -0.14 -0.30 -0.24 -0.61 -0.30 -0.94 -0.50 -2.21 0.44 -4.30 2.84 -6.26 3.14 -2.57 6.38 -3.43 9.70 -2.56 0.33 0.08 0.64 0.19 0.95 0.32 4.80 2.01 8.85 5.58 12.16 10.68 3.05 4.70 4.45 9.64 4.21 14.81 -0.01 0.33 0.00 0.66 0.05 0.99 0.53 3.35 0.51 6.77 -0.07 10.26 -0.91 4.51 -1.33 8.51 -1.25 12.00 0.24 3.89 1.43 7.71 3.56 11.44 3.30 5.77 7.67 10.83 13.11 15.19 0.26 0.20 0.53 0.40 0.81 0.59 7.58 5.19 16.51 8.11 26.77 8.78 2.42 0.16 4.70 0.39 6.83 0.71 1.35 0.14 2.30 0.83 2.85 2.08 1.91 4.65 4.29 8.95 7.13 12.90 0.73 1.01 1.45 1.44 2.16 1.30 0.81 -0.09 1.02 -0.50 0.62 -1.21 -0.99 -1.76 -1.31 -2.82 -0.95 -3.18 0.24 -0.23 0.51 -0.28 0.82 -0.15 0.99 0.42 1.93 1.28 2.82 2.58 0.19 0.27 0.43 0.49 0.71 0.66 1.11 0.66 1.70 0.19 1.77 -1.41 0.05 -1.17 0.50 -1.35 1.36 -0.55 0.35 0.66 0.91 1.31 1.69 1.96 1.07 0.88 1.73 0.59 1.97 -0.88 0.02 -0.33 0.19 -0.55 0.51 -0.66 0.33 -0.13 0.72 0.18 1.15 0.91 0.92 1.58 2.17 2.04 3.75 1.38 1.70 -0.73 2.88 -1.04 3.56 -0.94 3.36 0.50 6.36 1.60 9.02 3.29 0.28 0.18 0.54 0.38 0.78 0.61 3.29 3.03 7.38 7.05 12.27 12.07 1.24 1.27 2.19 2.74 2.83 4.39 1.31 3.37 3.27 5.93 5.87 7.67 0.28 0.19 0.52 0.41 0.73 0.67 2.10 2.63 4.71 5.12 7.85 7.50 0.27 0.20 0.57 0.30 0.90 0.31 2.47 0.02 4.89 0.44 7.25 1.24 1.88 0.64 3.82 0.54 5.84 -0.28 0.67 -0.29 0.65 -0.55 -0.03 -0.79 -0.70 -0.24 -1.37 -0.75 -2.02 -1.51 -0.52 -0.64 -0.41 -1.13 0.34 -1.47 1.71 -0.79 2.48 -1.94 2.31 -3.45 -0.09 -0.85 -0.50 -1.04 -1.21 -0.57 -0.73 0.48 -1.55 0.75 -2.46 0.82 -1.16 0.08 -1.48 -0.40 -0.96 -1.44 0.79 -1.56 0.94 -2.93 0.45 -4.08 -0.47 -1.09 -1.03 -1.15 -1.70 -0.17 -0.80 1.43 -1.82 2.32 -3.06 2.69 -1.59 0.39 -2.16 -0.17 -1.69 -1.69 0.46 -1.49 1.03 -3.11 1.70 -4.87 0.30 -0.99 -0.07 -1.43 -1.10 -1.32 -0.36 0.08 -0.90 0.47 -1.60 1.19 -0.28 0.30 -0.82 0.04 -1.62 -0.75 -0.57 -0.56 -1.32 -0.75 -2.27 -0.57 -0.98 0.02 -1.68 -0.42 -2.11 -1.30 -1.09 -2.23 -1.77 -4.46 -2.06 -6.69 -0.67 -5.21 -1.61 -8.52 -2.81 -9.94 -3.81 -4.24 -6.71 -9.35 -8.69 -15.31 -0.44 -1.33 -1.36 -1.93 -2.75 -1.80 -0.33 0.03 -0.66 0.00 -0.97 -0.11 -2.77 -0.97 -5.52 -1.96 -8.25 -2.98 -0.31 -0.11 -0.45 -0.34 -0.42 -0.67 0.11 -1.01 0.99 -1.41 2.64 -1.19 1.79 0.24 3.46 0.53 5.01 0.89 0.33 0.07 0.66 0.10 0.99 0.07 3.20 -0.24 6.18 0.73 8.92 2.92 0.26 0.20 0.55 0.35 0.88 0.44 1.95 0.44 3.79 1.31 5.51 2.62 6.03 4.57 12.03 9.15 18.00 13.75 4.67 3.54 9.54 6.67 14.63 9.37 13.56 7.22 27.76 10.21 42.60 8.98 1.64 -0.13 3.20 -0.54 4.68 -1.23 6.42 -2.95 12.10 -5.90 17.04 -8.87 0.29 -0.17 0.53 -0.39 0.72 -0.66 0.47 -1.05 0.25 -1.37 -0.67 -0.97 -3.75 1.67 -7.52 1.98 -11.29 0.95 -1.17 -0.39 -2.11 -0.08 -2.83 0.93 -1.98 3.06 -4.29 4.67 -6.94 4.81 -2.49 0.14 -4.55 0.21 -6.20 0.23 -0.32 0.06 -0.57 0.23 -0.72 0.53 -0.60 1.01 -1.88 1.43 -3.83 1.24 -2.16 -0.21 -4.16 -0.29 -6.00 -0.26 -0.33 0.01 -0.66 -0.02 -0.99 -0.09 -9.70 -2.02 -18.89 -6.13 -27.57 -12.34 -4.73 -3.37 -8.89 -7.37 -12.50 -12.00 -0.52 -0.67 -1.08 -1.21 -1.71 -1.60 -0.28 -0.18 -0.48 -0.43 -0.60 -0.74 -0.47 -1.20 -1.28 -2.17 -2.44 -2.91 -1.52 -0.97 -2.31 -1.51 -2.38 -1.62 -1.12 -1.96 -2.56 -3.19 -4.31 -3.69 -0.72 -0.39 -1.45 -1.07 -2.19 -2.06 -0.57 -0.78 -1.49 -1.05 -2.75 -0.84 -0.33 0.06 -0.62 -0.02 -0.87 -0.25 -0.65 -0.59 -1.25 -1.45 -1.79 -2.59 -0.14 -0.30 -0.35 -0.54 -0.63 -0.73 -0.93 -0.64 -2.42 -1.09 -4.45 -1.37 -0.78 -0.11 -1.23 -0.56 -1.35 -1.35 -0.43 -2.17 -1.31 -2.92 -2.66 -2.25 -0.88 0.44 -1.45 0.80 -1.71 1.08 -0.23 0.24 -0.49 0.27 -0.76 0.08 -0.62 -0.42 -0.89 -1.41 -0.83 -2.99 0.05 -1.13 -0.49 -1.60 -1.60 -1.43 -0.92 0.15 -1.91 0.61 -2.97 1.39 -1.03 0.74 -1.70 0.50 -2.03 -0.72 -0.26 -0.97 -0.51 -2.07 -0.75 -3.29 -0.06 -0.33 -0.21 -0.61 -0.44 -0.86 -0.65 -0.69 -1.42 -0.88 -2.31 -0.55 -0.31 0.11 -0.58 0.30 -0.78 0.56 -0.67 0.83 -1.34 1.34 -2.01 1.51 -1.72 0.44 -2.44 -0.21 -2.18 -1.96 0.26 -1.72 0.09 -2.76 -0.51 -3.12 -0.29 -0.17 -0.59 -0.23 -0.92 -0.18 -1.23 0.20 -2.28 0.97 -3.17 2.32 -0.19 0.27 -0.42 0.50 -0.70 0.68 -1.05 0.63 -1.60 0.35 -1.64 -0.83 -0.04 -1.33 0.27 -2.69 0.94 -4.06 0.44 -1.05 0.37 -1.60 -0.19 -1.65 -0.33 -0.03 -0.65 0.04 -0.94 0.21 -0.90 0.51 -1.95 1.24 -3.12 2.19 -0.69 0.55 -1.29 0.47 -1.80 -0.25 -0.53 -0.73 -0.95 -1.75 -1.24 -3.03 -0.25 -1.12 -0.91 -1.46 -1.97 -1.03 -3.50 1.43 -6.63 0.61 -9.37 -2.44 -1.40 -1.56 -2.25 -4.21 -2.56 -7.94 -0.40 -4.79 0.62 -8.94 3.06 -12.44 0.96 -1.37 2.22 -1.77 3.79 -1.19 3.49 1.29 6.82 3.48 9.96 6.57 2.68 2.63 4.33 3.98 4.94 4.06 1.17 0.15 1.65 -0.16 1.44 -0.94 -0.98 -3.49 -1.65 -5.49 -2.00 -6.00 -0.52 -0.74 -1.23 -1.17 -2.13 -1.30 -0.33 -0.05 -0.58 -0.21 -0.76 -0.50 -1.55 -2.58 -2.34 -5.31 -2.36 -8.20 0.00 -0.33 -0.07 -0.65 -0.20 -0.96 -0.92 -2.18 -0.10 -3.82 2.45 -4.91 4.81 -2.07 8.81 -1.94 12.00 0.37 1.33 1.01 3.16 1.47 5.46 1.36 0.47 -0.05 0.56 -0.26 0.27 -0.63 -1.81 -2.07 -3.60 -4.19 -5.36 -6.35 -2.73 -3.37 -3.02 -7.37 -0.87 -12.00 3.27 -7.06 7.60 -13.64 13.00 -19.75 3.57 -4.03 7.69 -8.40 12.37 -13.13 3.95 -3.92 8.12 -7.17 12.50 -9.75 1.62 -0.93 3.38 -0.35 5.31 1.73 0.68 0.73 1.48 0.90 2.40 0.51 1.97 -0.85 4.03 -0.84 6.17 0.01 0.58 0.23 0.84 0.04 0.79 -0.58 -0.08 -0.73 -0.68 -1.37 -1.79 -1.92 -5.23 -2.55 -10.39 -5.12 -15.48 -7.70 -1.89 -0.95 -3.33 -2.37 -4.31 -4.25 -2.35 -4.89 -2.90 -10.51 -1.65 -16.86 1.25 -6.37 3.36 -12.35 6.31 -17.94 1.23 -2.14 3.54 -2.91 6.94 -2.31 2.42 0.43 3.45 -0.33 3.09 -2.26 -0.06 -0.33 -0.04 -0.65 0.06 -0.97 0.51 -1.65 0.69 -2.67 0.54 -3.06 -0.13 -0.31 -0.35 -0.41 -0.66 -0.30 -4.82 1.69 -9.59 3.17 -14.30 4.46 -0.32 0.09 -0.65 0.14 -0.98 0.16 -4.25 0.39 -8.06 -1.31 -11.44 -5.09 -4.70 -5.27 -8.14 -11.42 -10.31 -18.44 -2.05 -6.05 -1.78 -11.78 0.81 -17.19 0.71 -1.52 2.02 -2.37 3.94 -2.56 2.41 -0.16 3.01 -1.28 1.79 -3.37 -0.56 -0.96 -0.23 -2.40 1.01 -4.32 0.32 -0.50 0.19 -0.82 -0.38 -0.98 -0.53 -0.14 -1.60 -0.16 -3.20 -0.04 -0.97 0.07 -1.71 0.52 -2.21 1.35 -5.94 9.90 -11.17 19.45 -15.70 28.67 -1.68 3.56 -3.60 6.81 -5.75 9.75 -6.75 9.27 -14.38 18.48 -22.87 27.63 -3.13 3.40 -7.14 7.28 -12.03 11.63 -0.16 0.14 -0.17 0.29 -0.02 0.45 2.60 2.84 4.22 5.91 4.86 9.23 0.78 4.07 1.03 6.49 0.75 7.25 -0.77 2.11 -0.69 4.05 0.26 5.81 0.16 0.29 0.26 0.61 0.31 0.94 0.45 3.27 0.81 6.83 1.08 10.69 0.03 0.33 -0.04 0.64 -0.21 0.93 -0.31 0.53 -0.31 1.10 0.00 1.69 0.46 0.90 0.25 1.10 -0.62 0.58 -3.39 -1.98 -6.84 -4.33 -10.34 -7.04 -0.98 -0.76 -1.32 -1.74 -1.02 -2.94 0.39 -1.55 0.75 -2.84 1.07 -3.87 0.11 -0.32 0.02 -0.57 -0.26 -0.76 -0.71 -0.42 -1.32 0.05 -1.83 1.41 -0.64 2.19 -1.64 3.52 -3.00 4.00 -6.09 2.12 -11.47 1.87 -16.13 -0.75 -0.93 -0.48 -1.84 -1.07 -2.73 -1.77 -0.72 -0.33 -1.16 -0.11 -1.33 0.67 -0.51 2.47 -0.50 4.47 0.02 6.00 0.11 0.31 0.32 0.55 0.61 0.69 1.61 0.61 2.88 1.61 3.81 3.03 2.28 3.48 3.88 6.71 4.81 9.69 0.62 1.63 0.78 3.63 0.48 6.01 -0.08 1.01 0.15 1.96 0.67 2.83 1.15 1.77 1.91 3.68 2.29 5.72 0.41 2.27 0.97 4.50 1.65 6.72 0.11 0.31 0.15 0.64 0.13 0.97 -0.14 1.94 -1.08 3.34 -2.83 4.21 -0.30 0.15 -0.61 0.27 -0.94 0.34 -3.69 0.91 -7.10 0.75 -10.22 -0.45 -1.96 -0.76 -2.79 -2.17 -2.50 -4.24 0.21 -1.43 0.40 -2.40 0.60 -2.92 0.60 -1.58 0.06 -2.31 -1.63 -2.20 -2.38 0.15 -4.25 -0.23 -5.60 -1.15 -0.28 -0.18 -0.45 -0.44 -0.53 -0.76 -0.31 -1.28 -0.17 -2.71 0.41 -4.28 0.35 -0.95 0.02 -1.39 -0.99 -1.32 -2.53 0.16 -4.30 -0.73 -5.30 -2.67 -0.84 -1.61 -1.94 -2.03 -3.29 -1.24 -1.19 0.69 -1.82 0.34 -1.88 -1.03 -0.17 -2.25 -0.83 -2.99 -1.96 -2.23 -1.09 0.74 -1.75 1.21 -1.98 1.43 Z M 115.31 138.94 c -5.15 -4.46 -11.34 -7.36 -18.56 -8.69 -2.96 -0.58 -5.96 -0.92 -9.00 -1.00 -15.34 -0.42 -30.56 -0.49 -45.66 -0.19 -1.39 0.01 -2.09 0.72 -2.09 2.11 0.00 31.72 0.00 63.17 0.00 94.35 0.00 1.64 0.82 2.47 2.46 2.48 14.17 0.11 28.26 0.03 42.29 -0.24 0.33 -0.01 0.67 -0.03 1.00 -0.06 5.07 -0.49 9.82 -1.22 14.25 -2.20 6.55 -1.28 12.28 -4.39 17.19 -9.31 7.71 -7.74 11.81 -17.14 12.29 -28.19 0.01 -0.33 0.04 -0.67 0.08 -1.00 1.35 -11.06 0.23 -21.79 -3.37 -32.19 -2.41 -6.39 -6.03 -11.68 -10.88 -15.87 Z M 169.05 165.44 c -0.06 -2.08 -0.08 -4.75 -0.04 -8.03 0.01 -0.92 -0.45 -1.39 -1.37 -1.40 -8.14 -0.10 -15.77 -0.02 -22.88 0.22 -0.78 0.03 -1.24 0.43 -1.37 1.20 -0.26 1.84 -0.39 3.37 -0.39 4.57 0.05 20.83 0.05 41.98 0.00 63.45 0.00 1.48 0.74 2.24 2.22 2.27 7.98 0.20 16.02 0.20 24.13 0.00 0.91 -0.02 1.39 -0.49 1.41 -1.40 0.23 -8.66 0.30 -17.51 0.24 -26.57 -0.05 -6.72 1.16 -12.80 3.61 -18.23 0.13 -0.30 0.29 -0.60 0.48 -0.87 2.17 -3.25 5.56 -4.47 10.16 -3.65 3.74 0.67 5.67 0.85 5.81 0.56 2.46 -5.20 5.06 -11.12 7.82 -17.77 0.44 -1.06 0.13 -1.81 -0.92 -2.25 -2.51 -1.06 -5.37 -1.97 -8.57 -2.74 -3.71 -0.89 -7.27 -0.49 -10.69 1.19 -3.72 1.98 -6.48 5.04 -8.26 9.20 -0.30 0.69 -0.60 0.99 -0.90 0.90 -0.32 -0.10 -0.48 -0.32 -0.49 -0.65 Z M 255.31 156.44 c -8.48 -2.03 -16.36 -2.44 -23.62 -1.25 -10.36 1.69 -18.66 6.57 -24.88 14.62 -5.43 7.20 -7.79 15.43 -7.06 24.69 0.48 6.17 2.38 12.02 5.69 17.56 2.20 3.74 5.37 6.99 9.50 9.75 7.32 4.91 15.59 7.22 24.81 6.95 0.33 -0.01 0.67 0.00 1.00 0.02 10.99 0.73 20.60 -2.51 28.81 -9.72 4.67 -4.02 7.87 -8.81 9.63 -14.37 2.41 -7.64 2.73 -15.26 0.96 -22.87 -0.82 -3.63 -2.25 -7.00 -4.29 -10.11 -5.13 -7.99 -11.98 -13.08 -20.55 -15.27 Z M 339.95 215.93 c 0.06 3.75 0.08 7.86 0.05 12.32 0.00 0.33 -0.03 0.66 -0.08 0.99 -0.64 3.87 -2.46 6.60 -5.48 8.20 -2.80 1.48 -6.34 1.48 -10.63 0.00 -1.80 -0.62 -3.27 -2.11 -4.41 -4.46 -0.45 -0.95 -1.19 -1.55 -2.21 -1.81 -2.60 -0.65 -5.74 -1.13 -9.44 -1.42 -5.06 -0.40 -9.88 -0.96 -14.45 -1.67 -0.96 -0.14 -1.46 0.27 -1.49 1.24 -0.33 6.25 0.92 11.46 3.75 15.62 3.27 4.57 8.00 7.59 14.19 9.06 6.80 1.61 14.14 2.36 22.00 2.25 5.27 -0.19 10.60 -1.02 16.00 -2.50 4.16 -1.17 7.43 -2.82 9.81 -4.94 7.11 -6.18 10.65 -13.89 10.63 -23.12 -0.06 -22.75 -0.13 -45.84 -0.19 -69.26 0.00 -0.29 -0.14 -0.43 -0.42 -0.43 -8.47 0.00 -16.69 0.00 -24.66 0.00 -0.60 0.00 -0.90 0.30 -0.92 0.89 -0.25 2.61 -0.09 5.06 0.50 7.36 0.17 0.67 0.02 0.95 -0.45 0.82 -0.33 -0.09 -0.60 -0.25 -0.84 -0.49 -2.23 -2.50 -4.32 -4.42 -6.27 -5.77 -4.73 -3.12 -10.29 -4.56 -16.69 -4.31 -6.86 0.26 -12.67 2.28 -17.44 6.06 -3.30 2.83 -5.74 6.06 -7.31 9.69 -3.15 7.28 -4.31 15.12 -3.50 23.50 0.40 3.44 1.13 6.79 2.19 10.06 1.74 5.40 4.74 9.98 9.00 13.75 3.36 2.88 7.13 4.86 11.31 5.94 5.65 1.47 11.34 1.15 17.06 -0.94 3.18 -1.19 6.26 -3.54 9.23 -7.05 0.75 -0.87 1.14 -0.73 1.16 0.42 Z M 388.94 167.44 c -5.34 6.29 -8.32 13.98 -8.94 23.06 -0.21 0.79 -0.29 1.71 -0.25 2.75 0.17 8.07 2.95 15.38 8.31 21.94 5.99 7.31 13.72 11.66 23.19 13.06 3.29 0.37 7.04 0.53 11.25 0.50 6.80 0.11 12.98 -1.20 18.56 -3.94 6.50 -3.18 11.45 -7.56 14.88 -13.12 3.46 -5.33 5.23 -11.31 5.31 -17.94 0.23 -2.44 0.23 -4.85 0.00 -7.25 -0.96 -9.84 -5.35 -17.78 -13.19 -23.81 -4.75 -3.78 -9.77 -6.07 -15.07 -6.87 -0.33 -0.05 -0.65 -0.11 -0.98 -0.18 -10.74 -2.46 -21.06 -1.57 -30.95 2.67 -4.77 2.19 -8.81 5.23 -12.12 9.13 Z M 499.15 165.47 c -0.17 -0.49 -0.06 -1.31 0.35 -2.47 0.19 -0.55 0.19 -1.13 -0.02 -1.72 -0.11 -0.31 -0.11 -0.62 0.00 -0.94 0.41 -1.14 0.46 -2.16 0.13 -3.04 -0.32 -0.86 -0.93 -1.29 -1.85 -1.30 -7.26 -0.04 -15.02 0.05 -23.27 0.28 -0.82 0.02 -1.23 0.44 -1.24 1.26 -0.08 20.50 -0.16 41.15 -0.25 61.96 -0.01 2.66 0.22 4.95 0.70 6.88 0.30 0.84 0.91 1.28 1.81 1.32 7.71 0.27 15.31 0.37 22.80 0.29 1.74 -0.02 2.62 -0.90 2.63 -2.64 0.00 -10.75 0.02 -21.53 0.06 -32.35 0.01 -2.78 0.27 -5.45 0.78 -8.03 0.78 -4.56 3.44 -7.30 7.97 -8.22 4.21 -0.85 7.44 0.42 9.69 3.81 1.04 1.58 1.56 4.72 1.56 9.44 0.00 11.50 0.00 23.56 0.00 36.18 0.00 1.01 0.50 1.54 1.51 1.60 6.09 0.35 14.27 0.27 24.52 -0.27 0.95 -0.05 1.42 -0.55 1.40 -1.50 -0.31 -14.62 -0.45 -28.71 -0.43 -42.26 0.00 -0.33 0.02 -0.67 0.07 -1.00 0.62 -4.57 0.18 -8.99 -1.32 -13.25 -1.33 -4.03 -3.60 -7.34 -6.81 -9.94 -4.27 -3.33 -9.25 -5.02 -14.94 -5.06 -8.45 -0.06 -15.81 2.75 -22.06 8.44 -0.37 0.43 -0.78 1.01 -1.25 1.75 -0.69 1.07 -1.32 1.53 -1.89 1.38 -0.33 -0.09 -0.54 -0.29 -0.65 -0.60 Z M 400.16 272.21 c -0.24 -0.75 -0.31 -1.66 -0.21 -2.71 0.03 -0.33 -0.01 -0.66 -0.12 -0.97 -0.31 -0.83 -1.01 -1.06 -2.11 -0.69 -0.31 0.11 -0.63 0.13 -0.96 0.07 -1.28 -0.28 -1.87 0.50 -1.76 2.34 0.28 4.79 0.22 9.55 -0.19 14.29 -0.05 0.89 0.38 1.31 1.27 1.24 2.61 -0.19 5.02 -0.21 7.21 -0.05 2.18 0.17 3.77 -0.72 4.77 -2.67 1.41 -2.74 1.37 -5.58 -0.13 -8.51 -1.23 -2.40 -3.09 -3.08 -5.57 -2.03 -0.49 0.21 -1.01 0.28 -1.55 0.22 -0.33 -0.03 -0.55 -0.21 -0.65 -0.53 Z M 468.61 285.73 c 2.82 0.66 4.28 -0.09 4.39 -2.23 0.24 -4.65 0.24 -9.31 0.00 -13.97 0.00 -0.99 -0.49 -1.49 -1.48 -1.52 -1.57 -0.04 -2.82 -0.03 -3.73 0.04 -0.52 0.03 -0.78 0.31 -0.78 0.84 -0.04 5.55 -0.02 10.52 0.06 14.89 0.01 1.05 0.53 1.70 1.54 1.95 Z M 477.57 271.28 c 1.37 0.46 2.51 0.13 3.42 -1.00 0.41 -0.52 0.38 -1.08 -0.11 -1.70 -0.21 -0.26 -0.48 -0.43 -0.81 -0.49 -1.41 -0.30 -2.59 -0.28 -3.54 0.06 -0.31 0.11 -0.50 0.33 -0.58 0.65 -0.26 1.20 0.28 2.02 1.62 2.48 Z M 522.78 277.15 c 1.23 -0.43 1.98 -1.29 2.26 -2.60 0.24 -1.07 -0.19 -1.55 -1.28 -1.45 -1.48 0.14 -2.02 -1.00 -1.63 -3.40 0.24 -1.46 -0.34 -1.96 -1.74 -1.50 -2.22 0.72 -3.95 2.63 -5.20 5.74 -0.27 0.67 0.06 1.71 1.00 3.12 0.77 1.17 1.04 2.64 0.81 4.41 -0.23 1.80 0.46 3.12 2.06 3.97 2.10 1.10 3.83 1.06 5.19 -0.12 1.26 -1.10 1.15 -2.04 -0.33 -2.81 -1.88 -0.99 -2.47 -2.57 -1.76 -4.72 0.10 -0.32 0.31 -0.53 0.62 -0.64 Z M 526.7962718062608 269.2139019226222 L 526.7853681054055 269.65376679881444 A 1.28 1.28 0 0 0 528.0332551609309 270.9650935684078 L 530.8124014241458 271.0339851329033 A 1.28 1.28 0 0 0 532.1237281937392 269.7860980773778 L 532.1346318945946 269.34623320118556 A 1.28 1.28 0 0 0 530.8867448390691 268.0349064315922 L 528.1075985758542 267.9660148670967 A 1.28 1.28 0 0 0 526.7962718062608 269.2139019226222 Z M 490.41 282.19 c -1.88 -0.32 -2.70 -1.55 -2.47 -3.69 0.04 -0.33 0.13 -0.65 0.28 -0.95 0.69 -1.43 1.57 -1.94 2.63 -1.54 0.31 0.12 0.58 0.29 0.82 0.53 1.28 1.24 2.89 1.33 4.84 0.25 0.53 -0.30 0.64 -0.70 0.33 -1.22 -1.05 -1.77 -2.57 -2.88 -4.56 -3.31 -2.42 -0.54 -4.61 -0.06 -6.59 1.43 -2.20 1.65 -3.09 3.67 -2.69 6.06 0.48 2.86 1.42 4.59 2.81 5.19 2.63 1.26 5.25 1.51 7.88 0.75 2.04 -0.59 3.34 -1.83 3.90 -3.72 0.11 -0.31 0.06 -0.60 -0.15 -0.86 -0.12 -0.16 -0.52 -0.26 -1.19 -0.32 -0.33 -0.03 -0.64 -0.13 -0.92 -0.31 -1.02 -0.67 -2.09 -0.32 -3.20 1.06 -0.45 0.55 -1.02 0.77 -1.72 0.65 Z M 507.69 277.19 c -0.04 0.12 -1.60 0.48 -4.69 1.06 -2.43 0.46 -3.67 1.71 -3.73 3.75 -0.01 0.33 0.03 0.66 0.13 0.98 0.68 2.14 2.30 3.15 4.85 3.02 1.36 -0.07 2.61 -0.60 3.76 -1.58 0.41 -0.29 0.80 -0.26 1.15 0.11 1.02 1.04 2.27 1.52 3.77 1.45 0.71 -0.04 0.98 -0.40 0.79 -1.09 -0.47 -1.73 -0.63 -3.78 -0.47 -6.14 0.20 -3.04 -0.32 -4.85 -1.56 -5.44 -3.60 -1.72 -7.14 -1.64 -10.63 0.25 -0.81 0.44 -1.16 1.26 -1.06 2.45 0.05 0.61 0.37 0.93 0.99 0.97 1.83 -0.09 3.59 -0.42 5.26 -0.98 1.17 -0.39 1.65 0.00 1.44 1.19 Z M 360.59 278.20 c -0.50 -1.06 -0.79 -2.28 -0.87 -3.64 -0.02 -0.33 -0.15 -0.62 -0.37 -0.87 -0.66 -0.72 -2.12 -0.91 -4.36 -0.57 -0.50 0.07 -0.66 0.34 -0.47 0.81 1.16 3.49 2.43 6.99 3.79 10.51 0.62 1.57 1.65 2.15 3.12 1.72 1.12 -0.31 1.90 -1.01 2.34 -2.08 0.61 -1.16 1.00 -2.29 1.17 -3.39 0.28 -1.87 0.78 -2.14 1.51 -0.82 0.16 0.30 0.24 0.61 0.26 0.94 0.08 2.17 0.83 3.72 2.26 4.65 1.70 1.11 3.02 0.77 3.97 -1.02 1.23 -2.34 2.19 -4.88 2.87 -7.63 0.73 -2.92 1.06 -4.38 1.00 -4.37 -1.25 0.10 -2.59 0.35 -4.02 0.74 -0.32 0.09 -0.54 0.29 -0.68 0.59 -0.72 1.66 -1.09 3.24 -1.11 4.73 -0.02 1.31 -0.22 1.74 -0.60 1.31 -0.23 -0.25 -0.37 -0.54 -0.43 -0.86 -0.27 -1.22 -0.62 -2.52 -1.03 -3.89 -0.63 -2.06 -2.26 -2.77 -4.89 -2.12 -0.33 0.08 -0.55 0.28 -0.69 0.58 -0.43 1.01 -0.94 2.53 -1.53 4.58 -0.32 1.15 -0.74 1.18 -1.24 0.10 Z M 382.55 281.26 c -0.22 -0.48 -0.17 -0.75 0.14 -0.82 3.19 -0.72 6.14 -0.83 8.87 -0.32 1.21 0.13 1.69 -0.40 1.43 -1.59 -0.48 -2.56 -1.58 -4.30 -3.30 -5.22 -2.22 -1.18 -4.57 -1.40 -7.05 -0.65 -2.03 0.53 -3.47 1.76 -4.31 3.68 -0.85 1.86 -0.77 3.89 0.23 6.10 0.96 2.12 2.74 3.36 5.33 3.72 2.50 0.37 4.68 -0.29 6.54 -2.00 1.19 -1.08 1.72 -1.95 1.60 -2.61 -0.06 -0.32 -0.26 -0.48 -0.59 -0.45 -1.95 0.14 -4.38 0.44 -7.29 0.90 -0.70 0.10 -1.23 -0.14 -1.60 -0.74 Z M 428.16 284.69 c 0.68 1.16 2.14 1.53 4.40 1.12 0.43 -0.07 0.49 -1.01 0.19 -2.81 -0.12 -0.71 -0.18 -1.81 -0.19 -3.31 -0.01 -3.70 -0.63 -5.82 -1.87 -6.38 -2.93 -1.31 -6.17 -1.41 -9.72 -0.31 -1.05 0.32 -1.71 1.02 -1.98 2.10 -0.35 1.41 0.32 2.04 2.01 1.90 1.57 -0.13 3.17 -0.45 4.81 -0.94 0.77 -0.24 1.09 -0.03 0.97 0.63 -0.06 0.33 -0.25 0.56 -0.55 0.69 -1.23 0.49 -2.64 0.79 -4.23 0.87 -1.47 0.08 -2.57 0.75 -3.31 2.02 -1.13 1.93 -0.72 3.53 1.25 4.79 2.32 1.50 4.84 1.32 7.53 -0.53 0.29 -0.18 0.52 -0.13 0.69 0.16 Z M 440.04 285.38 c 0.03 -0.54 0.29 -0.68 0.77 -0.44 3.10 1.58 5.52 1.12 7.25 -1.38 1.25 -1.79 1.56 -4.07 0.93 -6.84 -0.29 -1.68 -1.19 -2.92 -2.70 -3.72 -2.02 -1.07 -3.89 -0.99 -5.63 0.21 -0.27 0.19 -0.53 0.18 -0.78 -0.05 -0.92 -0.86 -2.32 -1.02 -4.19 -0.47 -0.41 0.12 -0.64 1.39 -0.69 3.81 -0.32 5.09 -0.24 9.42 0.25 13.00 0.15 1.14 1.26 1.62 3.30 1.46 0.99 -0.07 1.47 -0.60 1.45 -1.59 -0.03 -1.58 -0.02 -2.91 0.04 -3.99 Z M 549.0197800283129 279.1472881242792 A 7.46 6.84 0.44 0 0 534.100219971687 279.03271187572074 A 7.46 6.84 0.44 0 0 549.0197800283129 279.1472881242792 Z M 558.15 277.01 c 0.60 0.11 0.89 0.48 0.87 1.10 -0.11 2.47 -0.02 4.61 0.27 6.40 0.08 0.45 0.32 0.78 0.73 0.97 1.69 0.81 3.03 0.81 4.03 0.02 0.26 -0.21 0.44 -0.47 0.55 -0.79 0.94 -2.74 0.86 -5.80 -0.25 -9.18 -0.60 -1.82 -1.85 -2.84 -3.74 -3.08 -1.20 -0.15 -2.35 0.14 -3.47 0.87 -0.46 0.30 -0.87 0.24 -1.23 -0.17 -0.80 -0.92 -1.73 -1.08 -2.79 -0.46 -0.29 0.16 -0.60 0.24 -0.93 0.23 -0.78 -0.04 -1.18 0.32 -1.19 1.08 -0.04 3.50 -0.04 7.20 0.00 11.10 0.00 0.40 0.20 0.65 0.59 0.75 1.19 0.29 2.35 0.29 3.49 0.02 0.71 -0.17 1.04 -0.62 0.98 -1.35 -0.22 -2.82 -0.11 -4.98 0.35 -6.48 0.10 -0.32 0.29 -0.58 0.55 -0.78 0.35 -0.25 0.74 -0.34 1.19 -0.25 Z M 452.22 290.58 c 1.92 0.39 3.18 0.36 3.78 -0.08 1.43 -1.05 1.56 -2.55 0.40 -4.49 -0.44 -0.76 -0.23 -1.02 0.61 -0.79 3.86 1.12 6.41 0.44 7.68 -2.03 1.51 -2.97 1.25 -5.93 -0.79 -8.88 -1.53 -2.34 -3.51 -2.81 -5.93 -1.40 -0.60 0.35 -1.40 0.44 -2.41 0.28 -2.98 -0.48 -4.48 -0.35 -4.50 0.37 -0.10 5.21 -0.10 10.48 0.01 15.80 0.01 0.76 0.40 1.17 1.15 1.22 Z M 476.79 285.84 c 0.88 0.29 2.04 0.25 3.48 -0.09 0.21 -0.06 0.33 -0.19 0.36 -0.41 0.52 -4.63 0.57 -8.48 0.13 -11.53 -0.05 -0.33 -0.23 -0.56 -0.54 -0.69 -0.89 -0.36 -2.07 -0.33 -3.54 0.08 -0.45 0.13 -0.68 0.42 -0.68 0.90 0.00 3.60 0.00 7.16 0.00 10.67 0.00 0.55 0.26 0.91 0.79 1.07 Z M 526.9888737812805 274.19024764102323 L 527.0111371849425 284.8202243268329 A 1.18 1.18 0 0 0 528.193605981328 285.99775035439023 L 530.8336001911622 285.9922211553622 A 1.18 1.18 0 0 0 532.0111262187195 284.80975235897677 L 531.9888628150575 274.1797756731671 A 1.18 1.18 0 0 0 530.806394018672 273.00224964560977 L 528.1663998088378 273.0077788446378 A 1.18 1.18 0 0 0 526.9888737812805 274.19024764102323 Z M 428.21 316.15 c -0.14 -0.76 -0.28 -2.14 -0.42 -4.15 -0.03 -0.33 -0.15 -0.62 -0.38 -0.86 -0.46 -0.50 -1.03 -0.60 -1.70 -0.33 -0.31 0.13 -0.62 0.16 -0.95 0.10 -1.20 -0.25 -1.78 0.44 -1.76 2.09 0.08 5.88 0.21 10.99 0.40 15.31 0.02 0.34 0.20 0.54 0.53 0.60 1.47 0.31 2.73 0.23 3.76 -0.22 0.58 -0.26 0.68 -2.07 0.31 -5.44 -0.21 -1.92 0.54 -2.92 2.27 -3.01 0.96 -0.06 1.35 0.39 1.17 1.33 -0.40 2.11 -0.41 4.17 -0.03 6.19 0.06 0.33 0.22 0.60 0.47 0.81 0.55 0.45 1.77 0.57 3.67 0.37 0.97 -0.10 1.45 -0.64 1.45 -1.61 0.00 -1.47 0.00 -2.83 0.00 -4.08 0.00 -3.83 -0.60 -6.06 -1.81 -6.69 -1.44 -0.75 -3.36 -0.66 -5.77 0.27 -0.67 0.26 -1.07 0.03 -1.21 -0.68 Z M 502.76 317.81 c 0.32 2.18 0.42 5.14 0.32 8.88 -0.01 0.33 0.07 0.64 0.24 0.93 0.37 0.62 1.63 0.60 3.78 -0.04 0.60 -0.18 0.90 -0.59 0.90 -1.22 0.00 -4.24 0.00 -8.36 0.00 -12.36 0.00 -2.15 -0.27 -3.21 -0.81 -3.19 -1.71 -0.05 -3.09 0.29 -4.13 1.00 -1.19 0.83 -2.44 1.66 -3.75 2.50 -1.01 0.54 -1.45 1.60 -1.31 3.19 0.09 1.58 0.76 1.89 2.02 0.93 0.83 -0.63 1.55 -0.99 2.17 -1.06 0.33 -0.04 0.52 0.11 0.57 0.44 Z M 520.80 325.75 c 0.17 0.67 0.33 1.20 0.47 1.59 0.11 0.31 0.33 0.51 0.65 0.59 0.59 0.13 1.58 0.16 2.97 0.08 1.27 -0.08 1.41 -0.52 0.42 -1.32 -0.87 -0.96 -0.70 -1.50 0.50 -1.63 1.50 -0.15 2.22 -1.04 2.16 -2.67 -0.03 -0.62 -0.32 -1.07 -0.89 -1.33 -1.36 -0.63 -1.89 -1.73 -1.58 -3.31 0.28 -1.42 0.28 -2.84 0.00 -4.25 -0.42 -2.00 -1.08 -2.92 -2.00 -2.75 -1.87 0.41 -3.60 1.51 -5.19 3.31 -1.93 2.18 -3.80 4.56 -5.62 7.13 -0.66 0.98 -0.98 1.91 -0.96 2.78 0.06 0.69 0.43 1.03 1.12 1.03 2.02 0.00 4.34 0.00 6.98 0.00 0.52 0.00 0.84 0.25 0.97 0.75 Z M 532.19 311.69 c -1.37 4.37 -2.67 9.53 -3.90 15.47 -0.04 0.19 0.02 0.34 0.17 0.45 0.86 0.63 1.61 0.65 2.24 0.05 0.24 -0.23 0.39 -0.51 0.44 -0.84 0.73 -4.49 1.90 -9.59 3.50 -15.30 0.08 -0.29 -0.02 -0.48 -0.30 -0.57 -1.16 -0.39 -1.88 -0.14 -2.15 0.74 Z M 237.06 315.12 c 1.15 0.12 1.94 -0.63 2.35 -2.25 0.24 -0.94 -0.11 -1.50 -1.05 -1.70 -1.12 -0.24 -2.41 -0.29 -3.89 -0.16 -1.70 0.14 -2.80 1.03 -3.30 2.67 -0.37 1.23 -0.86 2.09 -1.47 2.57 -0.26 0.21 -0.46 0.47 -0.59 0.77 -0.59 1.36 -0.11 2.50 1.45 3.42 0.49 0.29 0.64 1.47 0.44 3.56 -0.17 1.86 -0.08 3.30 0.27 4.34 0.11 0.31 0.33 0.49 0.66 0.54 1.51 0.19 2.68 0.17 3.53 -0.06 0.32 -0.09 0.48 -0.30 0.49 -0.63 0.03 -2.38 0.07 -4.83 0.11 -7.36 0.01 -0.52 0.27 -0.80 0.79 -0.84 1.72 -0.15 2.40 -1.17 2.04 -3.07 -0.13 -0.67 -0.53 -0.97 -1.21 -0.88 -0.96 0.12 -1.38 -0.04 -1.25 -0.49 0.09 -0.33 0.30 -0.47 0.63 -0.43 Z M 362.23 319.19 c -0.30 -1.88 -0.38 -4.28 -0.23 -7.19 0.02 -0.33 -0.90 -0.67 -2.75 -1.00 -1.66 -0.34 -2.41 0.41 -2.25 2.25 0.40 4.50 0.40 9.00 0.00 13.50 -0.10 1.84 0.65 2.59 2.25 2.25 1.79 -0.32 2.69 -0.51 2.69 -0.56 0.04 -1.23 0.44 -2.50 1.18 -3.82 0.29 -0.53 0.63 -0.56 1.02 -0.09 0.54 0.65 1.04 1.60 1.49 2.83 0.57 1.56 1.67 2.16 3.30 1.79 0.62 -0.14 1.31 -0.19 2.07 -0.15 1.20 0.06 1.46 -0.40 0.80 -1.40 -1.11 -1.66 -2.35 -3.46 -3.74 -5.41 -0.41 -0.58 -0.39 -1.15 0.06 -1.70 0.92 -1.11 1.93 -2.15 3.06 -3.10 1.06 -0.90 0.89 -1.36 -0.50 -1.39 -1.81 -0.03 -3.26 -0.02 -4.37 0.04 -0.33 0.02 -0.62 0.14 -0.85 0.38 -0.64 0.65 -1.31 1.65 -2.02 3.02 -0.19 0.36 -0.41 0.49 -0.65 0.41 -0.32 -0.11 -0.50 -0.33 -0.56 -0.66 Z M 404.30550711165154 312.3555396112906 L 404.3934204625905 313.92307629115703 A 1.02 1.02 0 0 0 405.4689357692284 314.8843602373392 L 409.1132089421663 314.6799756953473 A 1.02 1.02 0 0 0 410.07449288834846 313.6044603887094 L 409.9865795374095 312.036923708843 A 1.02 1.02 0 0 0 408.9110642307716 311.07563976266084 L 405.2667910578337 311.2800243046527 A 1.02 1.02 0 0 0 404.30550711165154 312.3555396112906 Z M 540.76 317.81 c 0.26 1.85 0.37 4.82 0.31 8.88 0.00 0.33 0.10 0.63 0.32 0.88 0.69 0.82 2.01 0.88 3.95 0.17 0.32 -0.12 0.48 -0.34 0.50 -0.68 0.23 -4.78 0.26 -9.79 0.10 -15.00 -0.02 -0.65 -0.36 -1.00 -1.00 -1.07 -1.37 -0.04 -2.54 0.35 -3.50 1.20 -1.27 1.11 -2.65 1.85 -4.15 2.22 -0.32 0.10 -0.59 0.27 -0.82 0.52 -0.50 0.52 -0.63 1.61 -0.41 3.29 0.10 0.73 0.48 0.92 1.13 0.58 1.35 -0.69 2.35 -1.14 3.02 -1.34 0.32 -0.10 0.50 0.02 0.55 0.35 Z M 559.82 315.38 c 0.22 0.18 -0.10 0.61 -0.95 1.28 -0.64 0.51 -1.15 1.12 -1.55 1.84 -1.19 2.20 -2.12 5.01 -2.77 8.40 -0.10 0.56 0.12 0.88 0.67 0.97 2.09 0.35 3.33 0.18 3.72 -0.50 0.17 -0.29 0.28 -0.60 0.35 -0.92 0.98 -4.51 3.19 -9.02 6.65 -13.51 0.63 -0.83 0.47 -1.41 -0.47 -1.77 -0.31 -0.11 -0.64 -0.17 -0.97 -0.17 -4.00 0.00 -8.15 0.00 -12.44 0.00 -0.79 0.00 -0.98 0.33 -0.56 1.00 0.41 0.66 0.41 1.28 0.02 1.86 -0.60 0.87 -0.37 1.28 0.69 1.23 2.61 -0.12 4.85 -0.14 6.73 -0.05 0.33 0.01 0.62 0.13 0.88 0.34 Z M 419.47 325.20 c -0.13 -0.67 -0.21 -1.65 -0.22 -2.95 -0.01 -1.35 0.23 -2.13 0.73 -2.36 0.31 -0.14 0.53 -0.35 0.68 -0.65 0.75 -1.52 0.44 -2.70 -0.92 -3.54 -0.28 -0.17 -0.42 -0.43 -0.41 -0.76 0.04 -1.20 -0.20 -2.06 -0.73 -2.59 -0.23 -0.23 -0.52 -0.34 -0.85 -0.33 -3.00 0.10 -4.83 1.76 -5.50 4.98 -0.42 2.04 0.08 5.37 1.50 10.00 0.47 1.53 1.72 2.19 3.75 2.00 2.12 -0.20 3.19 -0.31 3.19 -0.31 0.73 -1.38 0.51 -2.31 -0.67 -2.81 -0.30 -0.13 -0.49 -0.36 -0.55 -0.68 Z M 482.54 322.17 c 1.13 -0.19 1.64 0.29 1.54 1.43 -0.19 2.07 0.09 3.20 0.84 3.38 2.61 0.64 3.63 -0.36 3.08 -2.98 -0.36 -1.69 0.62 -2.29 2.93 -1.80 1.07 0.22 1.75 -0.19 2.06 -1.24 0.31 -1.09 0.23 -1.93 -0.24 -2.51 -0.21 -0.26 -0.48 -0.40 -0.81 -0.42 -0.81 -0.05 -1.77 -0.06 -2.88 -0.04 -0.80 0.02 -1.15 -0.36 -1.07 -1.15 0.15 -1.45 0.08 -2.51 -0.22 -3.19 -0.14 -0.31 -0.35 -0.54 -0.65 -0.69 -1.01 -0.51 -1.82 -0.51 -2.43 0.03 -0.25 0.21 -0.41 0.49 -0.48 0.81 -0.16 0.74 -0.23 1.81 -0.21 3.20 0.01 0.88 -0.87 1.19 -2.66 0.94 -0.71 -0.11 -1.14 0.19 -1.30 0.89 -0.58 2.60 0.25 3.71 2.50 3.34 Z M 467.84 322.75 c 0.10 0.70 0.16 1.70 0.16 3.00 0.00 1.11 0.95 1.48 2.83 1.13 0.84 -0.17 1.24 -0.68 1.18 -1.54 -0.10 -1.31 -0.08 -2.20 0.05 -2.67 0.09 -0.32 0.29 -0.53 0.61 -0.61 0.48 -0.13 1.45 -0.14 2.93 -0.04 0.80 0.06 1.26 -0.31 1.37 -1.10 0.22 -1.45 0.12 -2.33 -0.31 -2.63 -0.27 -0.19 -0.58 -0.29 -0.91 -0.29 -0.67 0.00 -1.56 0.00 -2.67 0.00 -0.85 0.00 -1.22 -0.42 -1.11 -1.26 0.22 -1.72 0.09 -2.84 -0.38 -3.37 -0.23 -0.25 -0.51 -0.39 -0.84 -0.43 -1.88 -0.22 -2.80 0.63 -2.75 2.56 0.05 1.95 -0.62 2.79 -2.01 2.54 -1.06 -0.17 -1.69 0.28 -1.88 1.34 -0.33 1.86 0.50 2.71 2.48 2.55 0.63 -0.04 1.04 0.23 1.25 0.82 Z M 258.69 319.31 c 0.62 0.74 0.23 1.30 -1.19 1.69 -1.79 0.49 -3.30 0.91 -4.54 1.26 -2.17 0.18 -3.08 1.34 -2.75 3.49 0.39 2.51 1.90 3.60 4.54 3.25 2.77 -0.37 5.68 -0.34 8.72 0.09 0.89 0.17 1.26 -0.19 1.14 -1.08 -0.38 -2.68 -0.66 -5.75 -0.84 -9.22 -0.07 -1.27 -0.72 -2.05 -1.96 -2.35 -3.10 -0.95 -6.12 -0.93 -9.06 0.06 -0.98 0.33 -1.48 1.25 -1.50 2.75 -0.07 0.98 0.39 1.51 1.37 1.57 1.02 0.08 2.08 -0.18 3.19 -0.76 1.66 -0.86 2.62 -1.11 2.88 -0.75 Z M 296.81 324.26 c 2.29 -0.23 4.71 -0.40 7.24 -0.50 1.03 -0.04 1.46 -0.57 1.29 -1.58 -0.47 -3.29 -1.93 -5.33 -4.40 -6.12 -2.36 -0.95 -4.74 -0.78 -7.13 0.50 -2.40 1.29 -3.32 3.86 -2.75 7.71 0.37 3.00 2.06 4.66 5.08 4.98 3.10 0.46 5.83 -0.19 8.17 -1.94 0.90 -0.67 1.14 -1.30 0.73 -1.90 -0.19 -0.27 -0.46 -0.41 -0.79 -0.40 -1.75 0.04 -3.75 0.29 -6.00 0.74 -1.49 0.30 -2.16 -0.01 -2.02 -0.94 0.06 -0.33 0.25 -0.51 0.58 -0.55 Z M 329.78570096948306 322.0237876932198 L 329.7695760688788 322.62357097706524 A 6.44 6.44 0 0 0 336.0341760490009 329.2343188234933 L 337.76355118408884 329.2808122869024 A 6.44 6.44 0 0 0 344.3742990305169 323.0162123067802 L 344.3904239311212 322.4164290229347 A 6.44 6.44 0 0 0 338.12582395099906 315.80568117650665 L 336.3964488159111 315.75918771309756 A 6.44 6.44 0 0 0 329.78570096948306 322.0237876932198 Z M 452.08 320.89 c 0.60 -1.51 1.61 -1.85 3.01 -1.03 1.99 1.17 3.57 1.41 4.72 0.70 1.66 -1.00 1.68 -2.05 0.08 -3.14 -1.86 -1.26 -3.91 -1.81 -6.14 -1.67 -3.01 0.19 -4.90 0.96 -5.69 2.31 -1.31 2.25 -1.64 4.54 -1.00 6.88 0.57 2.05 1.88 3.37 3.93 3.95 3.31 1.11 6.37 0.63 9.20 -1.45 1.28 -0.95 1.51 -1.90 0.70 -2.87 -0.22 -0.25 -0.49 -0.42 -0.81 -0.50 -1.70 -0.41 -3.31 -0.02 -4.83 1.18 -1.29 1.02 -2.29 0.78 -3.00 -0.70 -0.59 -1.24 -0.65 -2.46 -0.17 -3.66 Z M 249.28 316.18 c -0.85 -0.13 -1.94 -0.06 -3.29 0.22 -0.33 0.07 -0.65 0.05 -0.97 -0.04 -1.39 -0.40 -2.76 -0.45 -4.12 -0.14 -0.60 0.13 -0.90 0.51 -0.90 1.12 0.00 2.77 0.00 5.49 0.00 8.16 0.00 2.42 0.19 3.65 0.56 3.69 0.89 0.10 2.19 -0.12 3.89 -0.66 0.38 -0.12 0.56 -0.38 0.53 -0.78 -0.13 -1.97 0.07 -3.91 0.60 -5.83 0.29 -1.02 0.95 -1.65 1.98 -1.88 1.60 -0.35 2.50 -1.20 2.69 -2.54 0.11 -0.76 -0.22 -1.20 -0.97 -1.32 Z M 283.19 320.46 c 0.53 0.22 0.70 0.61 0.52 1.15 -0.83 2.52 -1.01 4.72 -0.52 6.59 0.08 0.33 0.28 0.53 0.60 0.63 1.65 0.48 3.17 0.45 4.56 -0.09 0.31 -0.12 0.48 -0.34 0.52 -0.67 0.51 -4.01 0.21 -7.47 -0.88 -10.37 -0.39 -1.04 -1.14 -1.60 -2.24 -1.70 -2.69 -0.23 -4.65 0.16 -5.87 1.18 -0.25 0.21 -0.44 0.17 -0.57 -0.14 -0.13 -0.56 -0.51 -0.89 -1.12 -0.98 -1.61 -0.23 -3.40 -0.13 -5.38 0.31 -0.33 0.05 -0.66 0.02 -0.98 -0.07 -1.77 -0.53 -3.21 -0.51 -4.32 0.04 -0.30 0.15 -0.46 0.39 -0.49 0.72 -0.28 3.56 -0.27 7.27 0.04 11.13 0.07 0.79 0.88 1.06 2.44 0.81 1.61 -0.28 2.43 -0.55 2.44 -0.81 0.04 -1.67 0.06 -3.48 0.06 -5.44 0.00 -1.35 0.53 -2.25 1.60 -2.70 0.75 -0.33 1.16 -0.09 1.25 0.72 0.25 2.34 0.32 4.73 0.21 7.17 -0.01 0.38 0.88 0.74 2.69 1.06 1.83 0.33 2.61 -0.26 2.34 -1.76 -0.06 -0.33 -0.04 -0.65 0.05 -0.97 0.36 -1.22 0.36 -2.49 -0.01 -3.79 -0.09 -0.32 -0.08 -0.64 0.01 -0.96 0.40 -1.40 1.41 -1.75 3.05 -1.06 Z M 318.08 322.79 c 0.51 1.63 1.07 3.23 1.68 4.81 0.12 0.31 0.30 0.58 0.54 0.80 1.18 1.11 2.49 1.28 3.95 0.52 0.29 -0.16 0.50 -0.39 0.62 -0.70 1.20 -3.04 2.54 -6.83 4.01 -11.38 0.12 -0.36 -0.01 -0.58 -0.38 -0.67 -1.33 -0.30 -2.52 -0.33 -3.57 -0.09 -0.33 0.07 -0.56 0.26 -0.71 0.56 -0.85 1.78 -1.26 3.56 -1.23 5.36 0.01 0.33 -0.09 0.63 -0.30 0.89 -0.30 0.28 -0.59 -0.04 -0.88 -0.95 -0.61 -1.97 -1.25 -3.70 -1.89 -5.19 -0.16 -0.29 -0.39 -0.49 -0.71 -0.59 -1.72 -0.53 -3.01 -0.46 -3.88 0.22 -0.26 0.20 -0.42 0.47 -0.47 0.80 -0.24 1.58 -0.72 3.24 -1.42 5.01 -0.40 0.98 -0.79 1.15 -1.18 0.49 -0.17 -0.29 -0.25 -0.60 -0.24 -0.93 0.03 -0.86 -0.06 -1.95 -0.27 -3.25 -0.33 -2.09 -1.94 -2.88 -4.83 -2.35 -0.74 0.14 -0.96 0.55 -0.63 1.24 1.17 2.89 2.27 5.91 3.27 9.05 0.80 2.47 2.43 3.27 4.91 2.41 0.31 -0.11 0.56 -0.30 0.75 -0.58 0.95 -1.36 1.54 -3.20 1.78 -5.52 0.05 -0.47 0.20 -0.66 0.46 -0.59 0.32 0.10 0.53 0.31 0.62 0.63 Z M 351.06 316.44 c -0.93 -0.05 -2.05 -0.11 -3.36 -0.17 -1.32 0.14 -1.85 0.86 -1.59 2.16 0.50 2.50 0.39 5.44 -0.32 8.80 -0.23 1.10 0.21 1.68 1.33 1.74 1.00 0.05 2.29 0.06 3.88 0.03 0.67 -0.01 1.00 -0.35 1.00 -1.02 0.15 -1.42 0.15 -2.83 0.00 -4.23 -0.24 -2.29 0.60 -3.59 2.53 -3.89 0.65 -0.10 1.07 -0.47 1.25 -1.10 0.45 -1.86 0.08 -2.75 -1.09 -2.70 -1.23 0.06 -2.44 0.19 -3.63 0.38 Z M 391.81 322.77 c 0.38 1.44 0.91 3.09 1.58 4.95 0.12 0.31 0.29 0.59 0.52 0.83 0.54 0.54 1.79 0.66 3.75 0.34 0.80 -0.12 1.33 -0.57 1.57 -1.34 1.21 -3.76 2.40 -7.12 3.58 -10.08 0.33 -0.83 0.05 -1.29 -0.83 -1.39 -1.60 -0.18 -2.67 -0.16 -3.20 0.05 -0.31 0.12 -0.52 0.34 -0.64 0.65 -0.60 1.69 -0.99 3.27 -1.14 4.76 -0.22 1.99 -0.61 2.02 -1.17 0.11 -0.48 -1.65 -1.12 -3.27 -1.92 -4.89 -0.15 -0.30 -0.38 -0.51 -0.69 -0.62 -1.04 -0.37 -2.27 -0.36 -3.68 0.04 -0.32 0.09 -0.52 0.30 -0.60 0.62 -0.38 1.56 -0.88 3.35 -1.50 5.39 -0.36 1.17 -0.76 1.34 -1.21 0.50 -0.15 -0.29 -0.22 -0.61 -0.20 -0.94 0.13 -2.04 -0.26 -3.76 -1.19 -5.15 -0.18 -0.27 -0.44 -0.45 -0.76 -0.53 -0.71 -0.17 -1.84 -0.18 -3.39 -0.04 -0.72 0.06 -0.93 0.42 -0.62 1.08 1.53 2.91 2.74 5.98 3.62 9.20 0.56 2.05 2.01 2.93 4.34 2.65 0.76 -0.10 1.29 -0.50 1.57 -1.21 0.50 -1.25 1.00 -2.90 1.50 -4.97 0.22 -0.94 0.46 -0.94 0.71 -0.01 Z M 409.10 316.43 c -2.10 -0.65 -3.50 -0.56 -4.21 0.26 -0.22 0.25 -0.30 0.54 -0.24 0.86 0.39 2.09 0.48 5.43 0.28 10.02 -0.03 0.74 0.31 1.19 1.03 1.37 0.94 0.23 2.09 0.18 3.46 -0.15 0.39 -0.10 0.58 -0.34 0.58 -0.74 0.00 -3.53 0.00 -7.00 0.00 -10.39 0.00 -0.63 -0.30 -1.04 -0.90 -1.23 Z"/>
<path fill="rgb(0,0,0)" fill-opacity="1.000" d="M 727.97 24.04 c 1.60 -0.12 2.67 -0.10 3.20 0.04 0.57 0.16 0.70 0.48 0.38 0.98 -1.24 1.92 -1.57 3.36 -1.01 4.32 1.22 2.09 0.62 3.21 -1.79 3.37 -1.92 0.19 -3.23 1.04 -3.94 2.56 -2.59 5.41 -2.86 11.14 -0.81 17.19 2.17 7.02 5.61 13.17 10.31 18.44 3.38 3.78 7.19 5.48 11.44 5.09 0.33 -0.02 0.66 -0.07 0.98 -0.16 4.71 -1.29 9.48 -2.77 14.30 -4.46 0.31 -0.11 0.53 -0.01 0.66 0.30 0.15 0.39 -0.03 1.41 -0.54 3.06 -0.10 0.32 -0.12 0.64 -0.06 0.97 0.36 1.93 -0.67 2.69 -3.09 2.26 -3.40 -0.60 -5.71 0.17 -6.94 2.31 -2.95 5.59 -5.06 11.57 -6.31 17.94 -1.25 6.35 -0.70 11.97 1.65 16.86 0.98 1.88 2.42 3.30 4.31 4.25 5.09 2.58 10.25 5.15 15.48 7.70 1.11 0.55 1.71 1.19 1.79 1.92 0.05 0.62 -0.21 0.81 -0.79 0.58 -2.14 -0.85 -4.20 -0.86 -6.17 -0.01 -0.92 0.39 -1.72 0.22 -2.40 -0.51 -1.93 -2.08 -3.69 -2.66 -5.31 -1.73 -4.38 2.58 -8.55 5.83 -12.50 9.75 -4.68 4.73 -8.80 9.10 -12.37 13.13 -5.40 6.11 -9.73 12.69 -13.00 19.75 -2.15 4.63 -1.86 8.63 0.87 12.00 1.76 2.16 3.55 4.28 5.36 6.35 0.29 0.37 0.20 0.58 -0.27 0.63 -2.30 0.11 -4.13 -0.35 -5.46 -1.36 -3.19 -2.31 -7.19 -2.44 -12.00 -0.37 -2.55 1.09 -3.37 2.73 -2.45 4.91 0.13 0.31 0.20 0.63 0.20 0.96 0.02 2.89 0.81 5.62 2.36 8.20 0.18 0.29 0.43 0.45 0.76 0.50 0.90 0.13 1.61 0.56 2.13 1.30 0.35 0.51 1.02 2.51 2.00 6.00 0.21 0.78 -0.27 1.09 -1.44 0.94 -0.61 -0.08 -2.26 -1.43 -4.94 -4.06 -3.14 -3.09 -6.47 -5.28 -9.96 -6.57 -1.57 -0.58 -2.83 -0.18 -3.79 1.19 -2.44 3.50 -3.46 7.65 -3.06 12.44 0.31 3.73 1.16 6.38 2.56 7.94 2.74 3.05 5.87 3.87 9.37 2.44 1.06 -0.43 1.72 -0.09 1.97 1.03 0.29 1.28 0.71 2.30 1.24 3.03 0.51 0.72 1.11 0.80 1.80 0.25 1.17 -0.95 2.22 -1.68 3.12 -2.19 0.29 -0.17 0.61 -0.24 0.94 -0.21 0.56 0.05 0.63 0.60 0.19 1.65 -0.67 1.37 -0.98 2.73 -0.94 4.06 0.04 1.18 0.59 1.46 1.64 0.83 0.28 -0.18 0.51 -0.41 0.70 -0.68 0.89 -1.35 1.94 -2.12 3.17 -2.32 0.33 -0.05 0.63 0.01 0.92 0.18 0.60 0.36 0.77 1.40 0.51 3.12 -0.26 1.75 0.46 2.40 2.18 1.96 0.67 -0.17 1.34 -0.68 2.01 -1.51 0.20 -0.26 0.47 -0.45 0.78 -0.56 0.89 -0.33 1.66 -0.14 2.31 0.55 0.23 0.25 0.38 0.53 0.44 0.86 0.24 1.22 0.49 2.32 0.75 3.29 0.33 1.22 1.00 1.46 2.03 0.72 1.06 -0.78 2.05 -1.24 2.97 -1.39 1.11 -0.17 1.65 0.30 1.60 1.43 -0.06 1.58 0.21 2.57 0.83 2.99 0.27 0.19 0.53 0.16 0.76 -0.08 0.26 -0.28 0.83 -0.64 1.71 -1.08 1.35 -0.67 2.23 0.08 2.66 2.25 0.12 0.79 0.57 1.24 1.35 1.35 2.03 0.28 3.52 0.73 4.45 1.37 0.28 0.19 0.49 0.43 0.63 0.73 0.54 1.14 1.14 2.00 1.79 2.59 0.25 0.23 0.54 0.31 0.87 0.25 1.26 -0.21 2.18 0.06 2.75 0.84 0.74 0.99 1.47 1.67 2.19 2.06 1.75 0.50 3.19 1.73 4.31 3.69 0.07 0.11 0.86 0.65 2.38 1.62 1.16 0.74 1.97 1.71 2.44 2.91 0.12 0.31 0.32 0.56 0.60 0.74 0.63 0.39 1.19 0.93 1.71 1.60 3.61 4.63 7.77 8.63 12.50 12.00 8.68 6.21 17.87 10.32 27.57 12.34 0.33 0.07 0.66 0.10 0.99 0.09 1.84 -0.03 3.84 0.05 6.00 0.26 1.95 0.19 3.23 -0.23 3.83 -1.24 0.15 -0.30 0.40 -0.47 0.72 -0.53 1.65 -0.02 3.71 -0.09 6.20 -0.23 2.65 -0.14 4.96 -1.75 6.94 -4.81 0.72 -1.01 1.66 -1.32 2.83 -0.93 3.77 1.03 7.54 0.72 11.29 -0.95 0.92 -0.40 1.14 -0.08 0.67 0.97 -0.19 0.27 -0.43 0.49 -0.72 0.66 -4.94 2.97 -10.62 5.92 -17.04 8.87 -1.48 0.69 -3.04 1.10 -4.68 1.23 -14.84 1.23 -29.04 -1.76 -42.60 -8.98 -5.09 -2.70 -9.96 -5.83 -14.63 -9.37 -5.97 -4.60 -11.97 -9.18 -18.00 -13.75 -1.72 -1.31 -3.56 -2.18 -5.51 -2.62 -0.33 -0.09 -0.62 -0.24 -0.88 -0.44 -2.74 -2.19 -5.72 -3.16 -8.92 -2.92 -0.33 0.03 -0.66 0.00 -0.99 -0.07 -1.55 -0.36 -3.22 -0.65 -5.01 -0.89 -1.65 -0.22 -2.53 0.18 -2.64 1.19 -0.03 0.33 0.11 0.56 0.42 0.67 2.73 1.02 5.48 2.01 8.25 2.98 0.31 0.11 0.64 0.14 0.97 0.11 1.39 -0.13 2.31 0.47 2.75 1.80 1.98 5.96 4.88 11.07 8.69 15.31 1.20 1.42 2.14 4.73 2.81 9.94 0.29 2.23 0.97 4.46 2.06 6.69 0.43 0.88 1.13 1.32 2.11 1.30 0.95 -0.18 1.70 0.01 2.27 0.57 0.80 0.79 1.34 1.05 1.62 0.75 0.70 -0.72 1.24 -1.11 1.60 -1.19 1.03 -0.11 1.40 0.33 1.10 1.32 -0.67 1.76 -1.24 3.38 -1.70 4.87 -0.47 1.52 0.10 2.08 1.69 1.69 1.24 -0.37 2.26 -1.26 3.06 -2.69 0.67 -0.98 1.23 -0.92 1.70 0.17 0.49 1.15 0.34 2.52 -0.45 4.08 -0.52 1.04 -0.20 1.52 0.96 1.44 0.91 -0.07 1.73 -0.34 2.46 -0.82 0.71 -0.47 1.12 -0.28 1.21 0.57 0.17 1.51 -0.60 2.66 -2.31 3.45 -0.75 0.34 -0.86 0.83 -0.34 1.47 0.65 0.76 1.32 1.27 2.02 1.51 0.68 0.24 0.70 0.50 0.03 0.79 -2.02 0.82 -3.96 0.92 -5.84 0.28 -2.36 -0.80 -4.78 -1.22 -7.25 -1.24 -0.33 -0.01 -0.63 -0.11 -0.90 -0.31 -3.14 -2.38 -5.75 -4.87 -7.85 -7.50 -0.21 -0.26 -0.45 -0.48 -0.73 -0.67 -2.60 -1.74 -4.56 -4.30 -5.87 -7.67 -0.64 -1.65 -1.59 -3.12 -2.83 -4.39 -4.89 -5.02 -8.98 -9.04 -12.27 -12.07 -0.24 -0.23 -0.50 -0.43 -0.78 -0.61 -2.66 -1.69 -5.66 -2.79 -9.02 -3.29 -0.68 -0.10 -1.86 0.21 -3.56 0.94 -1.58 0.66 -2.83 0.20 -3.75 -1.38 -0.43 -0.73 -0.82 -1.04 -1.15 -0.91 -0.32 0.11 -0.49 0.33 -0.51 0.66 -0.24 1.47 -0.90 1.76 -1.97 0.88 -0.78 -0.65 -1.34 -1.30 -1.69 -1.96 -0.86 -0.80 -1.31 -0.62 -1.36 0.55 -0.07 1.60 -0.66 2.07 -1.77 1.41 -0.28 -0.17 -0.52 -0.39 -0.71 -0.66 -0.89 -1.30 -1.83 -2.16 -2.82 -2.58 -0.31 -0.13 -0.58 -0.08 -0.82 0.15 -0.36 0.36 -0.04 1.42 0.95 3.18 0.40 0.71 0.19 1.12 -0.62 1.21 -0.71 0.14 -1.43 -0.29 -2.16 -1.30 -2.84 -3.95 -5.22 -8.25 -7.13 -12.90 -0.55 -1.25 -1.50 -1.94 -2.85 -2.08 -2.13 -0.32 -4.41 -0.55 -6.83 -0.71 -10.26 -0.67 -19.19 -3.59 -26.77 -8.78 -0.28 -0.19 -0.55 -0.39 -0.81 -0.59 -5.44 -4.36 -9.81 -9.42 -13.11 -15.19 -2.13 -3.73 -3.32 -7.55 -3.56 -11.44 -0.08 -3.49 0.34 -7.49 1.25 -12.00 0.58 -3.49 0.60 -6.91 0.07 -10.26 -0.05 -0.33 -0.06 -0.66 -0.05 -0.99 0.24 -5.17 -1.16 -10.11 -4.21 -14.81 -3.31 -5.10 -7.36 -8.67 -12.16 -10.68 -0.31 -0.13 -0.62 -0.24 -0.95 -0.32 -3.32 -0.87 -6.56 -0.01 -9.70 2.56 -2.40 1.96 -3.34 4.05 -2.84 6.26 0.06 0.33 0.16 0.64 0.30 0.94 1.24 2.69 1.65 6.02 1.23 9.99 -0.66 6.15 -0.97 9.26 -0.94 9.31 1.02 1.60 2.21 3.01 3.56 4.23 0.25 0.22 0.41 0.49 0.49 0.82 0.16 0.67 -0.09 0.88 -0.74 0.64 -3.38 -1.28 -5.24 -1.84 -5.56 -1.69 -0.81 0.51 -0.78 0.99 0.06 1.44 1.33 0.70 2.33 1.42 3.00 2.17 0.65 1.04 0.38 1.42 -0.81 1.14 -2.58 -0.61 -5.14 -1.54 -7.69 -2.81 -1.75 -0.88 -1.92 -1.99 -0.51 -3.35 1.36 -1.32 2.06 -2.66 2.12 -4.03 0.01 -0.33 -0.14 -0.44 -0.45 -0.32 -0.41 0.15 -0.98 0.90 -1.72 2.26 -0.47 0.86 -0.97 0.93 -1.52 0.19 -0.15 -0.29 -0.19 -0.60 -0.10 -0.92 0.47 -1.79 1.28 -3.66 2.42 -5.61 0.58 -1.00 0.43 -1.88 -0.44 -2.63 -0.73 -0.77 -1.75 -0.92 -3.05 -0.47 -2.15 0.76 -4.48 2.28 -6.97 4.57 -0.28 0.23 -0.31 0.50 -0.09 0.79 0.61 0.81 1.13 1.41 1.57 1.80 0.24 0.23 0.38 0.51 0.42 0.84 0.09 0.92 -0.22 1.13 -0.93 0.63 -1.38 -0.97 -2.32 -1.89 -2.81 -2.76 -0.17 -0.29 -0.42 -0.45 -0.75 -0.48 -0.30 -0.03 -0.58 0.23 -0.85 0.79 -0.14 0.30 -0.37 0.50 -0.69 0.60 -1.21 0.48 -1.47 1.14 -0.77 1.97 0.78 0.95 1.37 1.62 1.77 2.02 0.47 1.23 0.19 1.44 -0.85 0.62 -2.04 -1.62 -4.22 -2.60 -6.55 -2.94 -0.33 -0.05 -0.57 -0.22 -0.73 -0.51 -1.48 -2.84 -1.34 -5.70 0.41 -8.57 0.17 -0.29 0.41 -0.50 0.71 -0.64 0.47 -0.23 1.30 -0.59 2.49 -1.10 2.75 -1.19 3.73 -3.25 2.94 -6.21 -0.09 -0.32 -0.09 -0.64 0.00 -0.96 0.66 -2.39 1.74 -4.28 3.25 -5.68 0.25 -0.23 0.52 -0.41 0.83 -0.55 1.56 -0.70 2.60 -1.73 3.11 -3.07 0.12 -0.31 0.11 -0.62 -0.02 -0.93 -0.56 -1.32 -0.73 -2.79 -0.50 -4.41 0.14 -0.99 0.63 -1.20 1.45 -0.63 1.11 0.77 2.17 0.91 3.17 0.42 1.46 -0.72 1.69 -1.73 0.70 -3.02 -1.50 -1.96 -1.83 -3.78 -1.00 -5.46 0.65 -1.30 1.41 -1.37 2.28 -0.21 1.00 1.31 2.01 1.97 3.04 1.96 1.04 -0.01 1.48 -1.16 1.31 -3.44 -0.14 -1.97 0.57 -3.37 2.15 -4.19 0.88 -0.46 1.44 -0.20 1.69 0.75 0.66 1.89 1.28 2.44 1.85 1.63 0.96 -1.37 1.58 -2.54 1.86 -3.52 0.09 -0.32 0.25 -0.60 0.49 -0.84 0.76 -0.80 1.48 -0.55 2.15 0.73 0.91 1.76 1.66 2.39 2.25 1.88 1.02 -1.12 2.14 -2.08 3.37 -2.88 1.14 -0.73 1.91 -0.05 2.33 2.06 0.08 0.46 0.35 0.63 0.80 0.51 0.43 -0.12 0.86 -0.56 1.30 -1.33 0.67 -1.20 1.66 -1.58 2.96 -1.15 1.50 0.50 1.85 1.29 1.05 2.35 -0.91 1.21 -0.64 1.62 0.83 1.24 0.23 -0.22 0.89 -0.69 1.98 -1.43 1.13 -0.76 1.79 -0.02 1.96 2.23 0.06 1.37 0.69 1.72 1.88 1.03 1.35 -0.79 2.45 -0.37 3.29 1.24 1.00 1.94 2.77 2.83 5.30 2.67 1.01 -0.07 1.34 0.37 0.99 1.32 -0.58 1.57 -0.72 3.00 -0.41 4.28 0.08 0.32 0.25 0.58 0.53 0.76 1.35 0.92 3.22 1.30 5.60 1.15 1.69 -0.11 2.23 0.62 1.63 2.20 -0.20 0.52 -0.39 1.49 -0.60 2.92 -0.29 2.07 0.54 3.48 2.50 4.24 3.12 1.20 6.53 1.36 10.22 0.45 0.33 -0.07 0.64 -0.19 0.94 -0.34 1.75 -0.87 2.69 -2.27 2.83 -4.21 0.02 -0.33 -0.02 -0.66 -0.13 -0.97 -0.68 -2.22 -1.24 -4.45 -1.65 -6.72 -0.38 -2.04 -1.14 -3.95 -2.29 -5.72 -0.52 -0.87 -0.75 -1.82 -0.67 -2.83 0.30 -2.38 0.14 -4.38 -0.48 -6.01 -0.93 -2.98 -2.53 -6.21 -4.81 -9.69 -0.93 -1.42 -2.20 -2.42 -3.81 -3.03 -0.29 -0.14 -0.50 -0.38 -0.61 -0.69 -0.52 -1.53 -0.53 -3.53 -0.02 -6.00 0.17 -0.78 0.61 -1.00 1.33 -0.67 0.89 0.70 1.80 1.29 2.73 1.77 4.66 2.62 10.04 2.87 16.13 0.75 1.36 -0.48 2.36 -1.81 3.00 -4.00 0.51 -1.36 1.12 -1.83 1.83 -1.41 0.28 0.19 0.37 0.44 0.26 0.76 -0.32 1.03 -0.68 2.32 -1.07 3.87 -0.30 1.20 0.04 2.18 1.02 2.94 3.50 2.71 6.95 5.06 10.34 7.04 0.87 0.52 1.08 0.32 0.62 -0.58 -0.31 -0.59 -0.31 -1.16 0.00 -1.69 0.17 -0.29 0.24 -0.60 0.21 -0.93 -0.27 -3.86 -0.63 -7.42 -1.08 -10.69 -0.05 -0.33 -0.15 -0.65 -0.31 -0.94 -0.95 -1.76 -1.03 -3.70 -0.26 -5.81 0.28 -0.76 0.03 -3.18 -0.75 -7.25 -0.64 -3.32 -2.26 -6.39 -4.86 -9.23 -0.15 -0.16 -0.14 -0.31 0.02 -0.45 4.89 -4.35 8.90 -8.23 12.03 -11.63 8.49 -9.15 16.12 -18.36 22.87 -27.63 2.15 -2.94 4.07 -6.19 5.75 -9.75 4.53 -9.22 9.76 -18.77 15.70 -28.67 0.50 -0.83 1.24 -1.28 2.21 -1.35 Z M 711.69 261.06 c 1.38 1.34 2.82 2.33 4.32 2.98 0.98 0.42 1.83 1.03 2.55 1.82 2.58 2.82 5.12 5.06 7.63 6.70 0.62 0.41 0.91 0.39 0.86 -0.06 -0.03 -0.33 -0.13 -0.64 -0.30 -0.93 -1.84 -3.13 -3.95 -5.97 -6.34 -8.52 -0.23 -0.24 -0.50 -0.43 -0.80 -0.58 -2.29 -1.12 -4.77 -2.59 -7.42 -4.41 -1.11 -0.76 -2.32 -1.38 -3.63 -1.87 -0.49 -0.29 -0.76 -0.11 -0.81 0.56 -0.03 0.30 1.28 1.74 3.94 4.31 Z"/>
<path fill="rgb(0,0,0)" fill-opacity="1.000" d="M 42.09 129.06 c 15.10 -0.30 30.32 -0.23 45.66 0.19 3.04 0.08 6.04 0.42 9.00 1.00 7.22 1.33 13.41 4.23 18.56 8.69 4.85 4.19 8.47 9.48 10.88 15.87 3.60 10.40 4.72 21.13 3.37 32.19 -0.04 0.33 -0.07 0.67 -0.08 1.00 -0.48 11.05 -4.58 20.45 -12.29 28.19 -4.91 4.92 -10.64 8.03 -17.19 9.31 -4.43 0.98 -9.18 1.71 -14.25 2.20 -0.33 0.03 -0.67 0.05 -1.00 0.06 -14.03 0.27 -28.12 0.35 -42.29 0.24 -1.64 -0.01 -2.46 -0.84 -2.46 -2.48 0.00 -31.18 0.00 -62.63 0.00 -94.35 0.00 -1.39 0.70 -2.10 2.09 -2.11 Z M 92.31 155.94 c -2.31 -1.67 -4.16 -2.65 -5.56 -2.94 -5.05 -1.05 -9.96 -1.39 -14.75 -1.02 -0.67 0.05 -1.00 0.41 -1.00 1.08 0.00 16.63 0.00 33.21 0.00 49.74 0.00 0.77 0.39 1.17 1.17 1.18 5.93 0.10 10.50 0.03 13.71 -0.20 1.58 -0.12 3.06 -0.58 4.44 -1.38 4.55 -2.73 7.19 -6.70 7.93 -11.90 1.21 -8.53 1.04 -17.03 -0.50 -25.50 -0.77 -3.95 -2.58 -6.97 -5.44 -9.06 Z"/>
<path fill="rgb(47,22,24)" fill-opacity="0.000" d="M 86.75 153.00 c 1.40 0.29 3.25 1.27 5.56 2.94 2.86 2.09 4.67 5.11 5.44 9.06 1.54 8.47 1.71 16.97 0.50 25.50 -0.74 5.20 -3.38 9.17 -7.93 11.90 -1.38 0.80 -2.86 1.26 -4.44 1.38 -3.21 0.23 -7.78 0.30 -13.71 0.20 -0.78 -0.01 -1.17 -0.41 -1.17 -1.18 0.00 -16.53 0.00 -33.11 0.00 -49.74 0.00 -0.67 0.33 -1.03 1.00 -1.08 4.79 -0.37 9.70 -0.03 14.75 1.02 Z"/>
<path fill="rgb(0,0,0)" fill-opacity="1.000" d="M 189.39 154.80 c 3.20 0.77 6.06 1.68 8.57 2.74 1.05 0.44 1.36 1.19 0.92 2.25 -2.76 6.65 -5.36 12.57 -7.82 17.77 -0.14 0.29 -2.07 0.11 -5.81 -0.56 -4.60 -0.82 -7.99 0.40 -10.16 3.65 -0.19 0.27 -0.35 0.57 -0.48 0.87 -2.45 5.43 -3.66 11.51 -3.61 18.23 0.06 9.06 -0.01 17.91 -0.24 26.57 -0.02 0.91 -0.50 1.38 -1.41 1.40 -8.11 0.20 -16.15 0.20 -24.13 0.00 -1.48 -0.03 -2.22 -0.79 -2.22 -2.27 0.05 -21.47 0.05 -42.62 0.00 -63.45 0.00 -1.20 0.13 -2.73 0.39 -4.57 0.13 -0.77 0.59 -1.17 1.37 -1.20 7.11 -0.24 14.74 -0.32 22.88 -0.22 0.92 0.01 1.38 0.48 1.37 1.40 -0.04 3.28 -0.02 5.95 0.04 8.03 0.01 0.33 0.17 0.55 0.49 0.65 0.30 0.09 0.60 -0.21 0.90 -0.90 1.78 -4.16 4.54 -7.22 8.26 -9.20 3.42 -1.68 6.98 -2.08 10.69 -1.19 Z"/>
<path fill="rgb(0,0,0)" fill-opacity="1.000" d="M 255.31 156.44 c 8.57 2.19 15.42 7.28 20.55 15.27 2.04 3.11 3.47 6.48 4.29 10.11 1.77 7.61 1.45 15.23 -0.96 22.87 -1.76 5.56 -4.96 10.35 -9.63 14.37 -8.21 7.21 -17.82 10.45 -28.81 9.72 -0.33 -0.02 -0.67 -0.03 -1.00 -0.02 -9.22 0.27 -17.49 -2.04 -24.81 -6.95 -4.13 -2.76 -7.30 -6.01 -9.50 -9.75 -3.31 -5.54 -5.21 -11.39 -5.69 -17.56 -0.73 -9.26 1.63 -17.49 7.06 -24.69 6.22 -8.05 14.52 -12.93 24.88 -14.62 7.26 -1.19 15.14 -0.78 23.62 1.25 Z M 247.31 175.94 c -3.13 -2.40 -6.70 -3.00 -10.71 -1.82 -2.13 0.67 -3.86 1.90 -5.20 3.70 -2.04 2.90 -3.26 6.21 -3.65 9.93 -0.63 5.99 0.16 11.48 2.36 16.48 0.13 0.31 0.30 0.60 0.49 0.87 2.59 3.75 6.31 5.38 11.15 4.90 3.74 -0.37 6.70 -2.26 8.88 -5.66 1.75 -2.66 2.62 -5.58 2.62 -8.77 0.20 -3.06 0.20 -6.00 0.00 -8.82 -0.32 -4.59 -2.30 -8.19 -5.94 -10.81 Z"/>
<path fill="rgb(0,0,0)" fill-opacity="1.000" d="M 318.25 154.50 c 6.40 -0.25 11.96 1.19 16.69 4.31 1.95 1.35 4.04 3.27 6.27 5.77 0.24 0.24 0.51 0.40 0.84 0.49 0.47 0.13 0.62 -0.15 0.45 -0.82 -0.59 -2.30 -0.75 -4.75 -0.50 -7.36 0.02 -0.59 0.32 -0.89 0.92 -0.89 7.97 0.00 16.19 0.00 24.66 0.00 0.28 0.00 0.42 0.14 0.42 0.43 0.06 23.42 0.13 46.51 0.19 69.26 0.02 9.23 -3.52 16.94 -10.63 23.12 -2.38 2.12 -5.65 3.77 -9.81 4.94 -5.40 1.48 -10.73 2.31 -16.00 2.50 -7.86 0.11 -15.20 -0.64 -22.00 -2.25 -6.19 -1.47 -10.92 -4.49 -14.19 -9.06 -2.83 -4.16 -4.08 -9.37 -3.75 -15.62 0.03 -0.97 0.53 -1.38 1.49 -1.24 4.57 0.71 9.39 1.27 14.45 1.67 3.70 0.29 6.84 0.77 9.44 1.42 1.02 0.26 1.76 0.86 2.21 1.81 1.14 2.35 2.61 3.84 4.41 4.46 4.29 1.48 7.83 1.48 10.63 0.00 3.02 -1.60 4.84 -4.33 5.48 -8.20 0.05 -0.33 0.08 -0.66 0.08 -0.99 0.03 -4.46 0.01 -8.57 -0.05 -12.32 -0.02 -1.15 -0.41 -1.29 -1.16 -0.42 -2.97 3.51 -6.05 5.86 -9.23 7.05 -5.72 2.09 -11.41 2.41 -17.06 0.94 -4.18 -1.08 -7.95 -3.06 -11.31 -5.94 -4.26 -3.77 -7.26 -8.35 -9.00 -13.75 -1.06 -3.27 -1.79 -6.62 -2.19 -10.06 -0.81 -8.38 0.35 -16.22 3.50 -23.50 1.57 -3.63 4.01 -6.86 7.31 -9.69 4.77 -3.78 10.58 -5.80 17.44 -6.06 Z M 319.94 179.44 c -1.91 3.07 -2.72 6.67 -2.44 10.81 0.14 4.51 0.66 7.66 1.56 9.44 1.85 3.81 4.99 5.75 9.44 5.81 4.46 0.06 7.86 -2.04 10.19 -6.31 1.39 -2.45 1.92 -5.18 1.61 -8.19 -0.03 -0.33 -0.03 -0.67 0.00 -1.00 0.38 -4.07 -0.69 -7.59 -3.24 -10.56 -2.87 -3.37 -5.73 -4.93 -8.56 -4.69 -3.90 0.21 -6.75 1.78 -8.56 4.69 Z"/>
<path fill="rgb(0,0,0)" fill-opacity="1.000" d="M 432.99 155.82 c 5.30 0.80 10.32 3.09 15.07 6.87 7.84 6.03 12.23 13.97 13.19 23.81 0.23 2.40 0.23 4.81 0.00 7.25 -0.08 6.63 -1.85 12.61 -5.31 17.94 -3.43 5.56 -8.38 9.94 -14.88 13.12 -5.58 2.74 -11.76 4.05 -18.56 3.94 -4.21 0.03 -7.96 -0.13 -11.25 -0.50 -9.47 -1.40 -17.20 -5.75 -23.19 -13.06 -5.36 -6.56 -8.14 -13.87 -8.31 -21.94 -0.04 -1.04 0.04 -1.96 0.25 -2.75 0.62 -9.08 3.60 -16.77 8.94 -23.06 3.31 -3.90 7.35 -6.94 12.12 -9.13 9.89 -4.24 20.21 -5.13 30.95 -2.67 0.33 0.07 0.65 0.13 0.98 0.18 Z M 411.19 178.44 c -2.13 3.33 -3.28 7.02 -3.44 11.06 -0.15 3.87 0.18 7.37 1.00 10.50 1.34 4.60 3.76 7.60 7.25 9.00 4.96 1.98 9.27 1.21 12.94 -2.31 1.98 -1.91 3.42 -5.22 4.31 -9.94 1.28 -6.23 0.62 -11.98 -2.00 -17.25 -1.82 -3.67 -5.11 -5.67 -9.87 -5.99 -4.37 -0.36 -7.76 1.29 -10.19 4.93 Z"/>
<path fill="rgb(0,0,0)" fill-opacity="1.000" d="M 525.00 154.50 c 5.69 0.04 10.67 1.73 14.94 5.06 3.21 2.60 5.48 5.91 6.81 9.94 1.50 4.26 1.94 8.68 1.32 13.25 -0.05 0.33 -0.07 0.67 -0.07 1.00 -0.02 13.55 0.12 27.64 0.43 42.26 0.02 0.95 -0.45 1.45 -1.40 1.50 -10.25 0.54 -18.43 0.62 -24.52 0.27 -1.01 -0.06 -1.51 -0.59 -1.51 -1.60 0.00 -12.62 0.00 -24.68 0.00 -36.18 0.00 -4.72 -0.52 -7.86 -1.56 -9.44 -2.25 -3.39 -5.48 -4.66 -9.69 -3.81 -4.53 0.92 -7.19 3.66 -7.97 8.22 -0.51 2.58 -0.77 5.25 -0.78 8.03 -0.04 10.82 -0.06 21.60 -0.06 32.35 -0.01 1.74 -0.89 2.62 -2.63 2.64 -7.49 0.08 -15.09 -0.02 -22.80 -0.29 -0.90 -0.04 -1.51 -0.48 -1.81 -1.32 -0.48 -1.93 -0.71 -4.22 -0.70 -6.88 0.09 -20.81 0.17 -41.46 0.25 -61.96 0.01 -0.82 0.42 -1.24 1.24 -1.26 8.25 -0.23 16.01 -0.32 23.27 -0.28 0.92 0.01 1.53 0.44 1.85 1.30 0.33 0.88 0.28 1.90 -0.13 3.04 -0.11 0.32 -0.11 0.63 0.00 0.94 0.21 0.59 0.21 1.17 0.02 1.72 -0.41 1.16 -0.52 1.98 -0.35 2.47 0.11 0.31 0.32 0.51 0.65 0.60 0.57 0.15 1.20 -0.31 1.89 -1.38 0.47 -0.74 0.88 -1.32 1.25 -1.75 6.25 -5.69 13.61 -8.50 22.06 -8.44 Z"/>
<path fill="rgb(47,22,24)" fill-opacity="0.000" d="M 247.31 175.94 c 3.64 2.62 5.62 6.22 5.94 10.81 0.20 2.82 0.20 5.76 0.00 8.82 0.00 3.19 -0.87 6.11 -2.62 8.77 -2.18 3.40 -5.14 5.29 -8.88 5.66 -4.84 0.48 -8.56 -1.15 -11.15 -4.90 -0.19 -0.27 -0.36 -0.56 -0.49 -0.87 -2.20 -5.00 -2.99 -10.49 -2.36 -16.48 0.39 -3.72 1.61 -7.03 3.65 -9.93 1.34 -1.80 3.07 -3.03 5.20 -3.70 4.01 -1.18 7.58 -0.58 10.71 1.82 Z"/>
<path fill="rgb(47,22,24)" fill-opacity="0.000" d="M 421.38 173.51 c 4.76 0.32 8.05 2.32 9.87 5.99 2.62 5.27 3.28 11.02 2.00 17.25 -0.89 4.72 -2.33 8.03 -4.31 9.94 -3.67 3.52 -7.98 4.29 -12.94 2.31 -3.49 -1.40 -5.91 -4.40 -7.25 -9.00 -0.82 -3.13 -1.15 -6.63 -1.00 -10.50 0.16 -4.04 1.31 -7.73 3.44 -11.06 2.43 -3.64 5.82 -5.29 10.19 -4.93 Z"/>
<path fill="rgb(47,22,24)" fill-opacity="0.000" d="M 328.50 174.75 c 2.83 -0.24 5.69 1.32 8.56 4.69 2.55 2.97 3.62 6.49 3.24 10.56 -0.03 0.33 -0.03 0.67 0.00 1.00 0.31 3.01 -0.22 5.74 -1.61 8.19 -2.33 4.27 -5.73 6.37 -10.19 6.31 -4.45 -0.06 -7.59 -2.00 -9.44 -5.81 -0.90 -1.78 -1.42 -4.93 -1.56 -9.44 -0.28 -4.14 0.53 -7.74 2.44 -10.81 1.81 -2.91 4.66 -4.48 8.56 -4.69 Z"/>
<path fill="rgb(47,22,24)" fill-opacity="0.000" d="M 708.56 256.19 c 1.31 0.49 2.52 1.11 3.63 1.87 2.65 1.82 5.13 3.29 7.42 4.41 0.30 0.15 0.57 0.34 0.80 0.58 2.39 2.55 4.50 5.39 6.34 8.52 0.17 0.29 0.27 0.60 0.30 0.93 0.05 0.45 -0.24 0.47 -0.86 0.06 -2.51 -1.64 -5.05 -3.88 -7.63 -6.70 -0.72 -0.79 -1.57 -1.40 -2.55 -1.82 -1.50 -0.65 -2.94 -1.64 -4.32 -2.98 -2.66 -2.57 -3.97 -4.01 -3.94 -4.31 0.05 -0.67 0.32 -0.85 0.81 -0.56 Z"/>
<path fill="rgb(0,0,0)" fill-opacity="1.000" d="M 399.95 269.50 c -0.10 1.05 -0.03 1.96 0.21 2.71 0.10 0.32 0.32 0.50 0.65 0.53 0.54 0.06 1.06 -0.01 1.55 -0.22 2.48 -1.05 4.34 -0.37 5.57 2.03 1.50 2.93 1.54 5.77 0.13 8.51 -1.00 1.95 -2.59 2.84 -4.77 2.67 -2.19 -0.16 -4.60 -0.14 -7.21 0.05 -0.89 0.07 -1.32 -0.35 -1.27 -1.24 0.41 -4.74 0.47 -9.50 0.19 -14.29 -0.11 -1.84 0.48 -2.62 1.76 -2.34 0.33 0.06 0.65 0.04 0.96 -0.07 1.10 -0.37 1.80 -0.14 2.11 0.69 0.11 0.31 0.15 0.64 0.12 0.97 Z M 402.67 276.30 c -1.29 -0.45 -2.12 -0.07 -2.48 1.14 -0.55 1.85 -0.59 3.20 -0.12 4.06 0.16 0.29 0.41 0.47 0.74 0.53 1.95 0.36 3.04 -0.83 3.25 -3.58 0.09 -1.07 -0.38 -1.79 -1.39 -2.15 Z"/>
<path fill="rgb(0,0,0)" fill-opacity="1.000" d="M 467.79 268.05 c 0.91 -0.07 2.16 -0.08 3.73 -0.04 0.99 0.03 1.48 0.53 1.48 1.52 0.24 4.66 0.24 9.32 0.00 13.97 -0.11 2.14 -1.57 2.89 -4.39 2.23 -1.01 -0.25 -1.53 -0.90 -1.54 -1.95 -0.08 -4.37 -0.10 -9.34 -0.06 -14.89 0.00 -0.53 0.26 -0.81 0.78 -0.84 Z"/>
<path fill="rgb(0,0,0)" fill-opacity="1.000" d="M 480.88 268.58 c 0.49 0.62 0.52 1.18 0.11 1.70 -0.91 1.13 -2.05 1.46 -3.42 1.00 -1.34 -0.46 -1.88 -1.28 -1.62 -2.48 0.08 -0.32 0.27 -0.54 0.58 -0.65 0.95 -0.34 2.13 -0.36 3.54 -0.06 0.33 0.06 0.60 0.23 0.81 0.49 Z"/>
<path fill="rgb(0,0,0)" fill-opacity="1.000" d="M 520.39 268.20 c 1.40 -0.46 1.98 0.04 1.74 1.50 -0.39 2.40 0.15 3.54 1.63 3.40 1.09 -0.10 1.52 0.38 1.28 1.45 -0.28 1.31 -1.03 2.17 -2.26 2.60 -0.31 0.11 -0.52 0.32 -0.62 0.64 -0.71 2.15 -0.12 3.73 1.76 4.72 1.48 0.77 1.59 1.71 0.33 2.81 -1.36 1.18 -3.09 1.22 -5.19 0.12 -1.60 -0.85 -2.29 -2.17 -2.06 -3.97 0.23 -1.77 -0.04 -3.24 -0.81 -4.41 -0.94 -1.41 -1.27 -2.45 -1.00 -3.12 1.25 -3.11 2.98 -5.02 5.20 -5.74 Z"/>
<rect fill="rgb(0,0,0)" fill-opacity="1.000" x="-2.67" y="-1.50" width="5.34" height="3.00" rx="1.28" transform="translate(529.46,269.50) rotate(1.42)"/>
<path fill="rgb(0,0,0)" fill-opacity="1.000" d="M 492.28 272.26 c 1.99 0.43 3.51 1.54 4.56 3.31 0.31 0.52 0.20 0.92 -0.33 1.22 -1.95 1.08 -3.56 0.99 -4.84 -0.25 -0.24 -0.24 -0.51 -0.41 -0.82 -0.53 -1.06 -0.40 -1.94 0.11 -2.63 1.54 -0.15 0.30 -0.24 0.62 -0.28 0.95 -0.23 2.14 0.59 3.37 2.47 3.69 0.70 0.12 1.27 -0.10 1.72 -0.65 1.11 -1.38 2.18 -1.73 3.20 -1.06 0.28 0.18 0.59 0.28 0.92 0.31 0.67 0.06 1.07 0.16 1.19 0.32 0.21 0.26 0.26 0.55 0.15 0.86 -0.56 1.89 -1.86 3.13 -3.90 3.72 -2.63 0.76 -5.25 0.51 -7.88 -0.75 -1.39 -0.60 -2.33 -2.33 -2.81 -5.19 -0.40 -2.39 0.49 -4.41 2.69 -6.06 1.98 -1.49 4.17 -1.97 6.59 -1.43 Z"/>
<path fill="rgb(0,0,0)" fill-opacity="1.000" d="M 511.69 273.31 c 1.24 0.59 1.76 2.40 1.56 5.44 -0.16 2.36 0.00 4.41 0.47 6.14 0.19 0.69 -0.08 1.05 -0.79 1.09 -1.50 0.07 -2.75 -0.41 -3.77 -1.45 -0.35 -0.37 -0.74 -0.40 -1.15 -0.11 -1.15 0.98 -2.40 1.51 -3.76 1.58 -2.55 0.13 -4.17 -0.88 -4.85 -3.02 -0.10 -0.32 -0.14 -0.65 -0.13 -0.98 0.06 -2.04 1.30 -3.29 3.73 -3.75 3.09 -0.58 4.65 -0.94 4.69 -1.06 0.21 -1.19 -0.27 -1.58 -1.44 -1.19 -1.67 0.56 -3.43 0.89 -5.26 0.98 -0.62 -0.04 -0.94 -0.36 -0.99 -0.97 -0.10 -1.19 0.25 -2.01 1.06 -2.45 3.49 -1.89 7.03 -1.97 10.63 -0.25 Z M 508.61326948109905 280.4147458500383 A 2.38 1.11 -26.32 0 0 504.346730518901 282.52525414996177 A 2.38 1.11 -26.32 0 0 508.61326948109905 280.4147458500383 Z"/>
<path fill="rgb(0,0,0)" fill-opacity="1.000" d="M 376.81 272.44 c 0.06 -0.01 -0.27 1.45 -1.00 4.37 -0.68 2.75 -1.64 5.29 -2.87 7.63 -0.95 1.79 -2.27 2.13 -3.97 1.02 -1.43 -0.93 -2.18 -2.48 -2.26 -4.65 -0.02 -0.33 -0.10 -0.64 -0.26 -0.94 -0.73 -1.32 -1.23 -1.05 -1.51 0.82 -0.17 1.10 -0.56 2.23 -1.17 3.39 -0.44 1.07 -1.22 1.77 -2.34 2.08 -1.47 0.43 -2.50 -0.15 -3.12 -1.72 -1.36 -3.52 -2.63 -7.02 -3.79 -10.51 -0.19 -0.47 -0.03 -0.74 0.47 -0.81 2.24 -0.34 3.70 -0.15 4.36 0.57 0.22 0.25 0.35 0.54 0.37 0.87 0.08 1.36 0.37 2.58 0.87 3.64 0.50 1.08 0.92 1.05 1.24 -0.10 0.59 -2.05 1.10 -3.57 1.53 -4.58 0.14 -0.30 0.36 -0.50 0.69 -0.58 2.63 -0.65 4.26 0.06 4.89 2.12 0.41 1.37 0.76 2.67 1.03 3.89 0.06 0.32 0.20 0.61 0.43 0.86 0.38 0.43 0.58 0.00 0.60 -1.31 0.02 -1.49 0.39 -3.07 1.11 -4.73 0.14 -0.30 0.36 -0.50 0.68 -0.59 1.43 -0.39 2.77 -0.64 4.02 -0.74 Z"/>
<path fill="rgb(0,0,0)" fill-opacity="1.000" d="M 389.69 273.31 c 1.72 0.92 2.82 2.66 3.30 5.22 0.26 1.19 -0.22 1.72 -1.43 1.59 -2.73 -0.51 -5.68 -0.40 -8.87 0.32 -0.31 0.07 -0.36 0.34 -0.14 0.82 0.37 0.60 0.90 0.84 1.60 0.74 2.91 -0.46 5.34 -0.76 7.29 -0.90 0.33 -0.03 0.53 0.13 0.59 0.45 0.12 0.66 -0.41 1.53 -1.60 2.61 -1.86 1.71 -4.04 2.37 -6.54 2.00 -2.59 -0.36 -4.37 -1.60 -5.33 -3.72 -1.00 -2.21 -1.08 -4.24 -0.23 -6.10 0.84 -1.92 2.28 -3.15 4.31 -3.68 2.48 -0.75 4.83 -0.53 7.05 0.65 Z M 383.69 277.81 c 1.25 0.42 2.38 0.46 3.39 0.12 0.32 -0.08 0.56 -0.26 0.73 -0.55 0.24 -0.49 -0.11 -0.70 -1.06 -0.63 -1.29 0.09 -2.23 0.01 -2.81 -0.26 -0.29 -0.16 -0.57 -0.14 -0.84 0.06 -0.60 0.51 -0.40 0.94 0.59 1.26 Z"/>
<path fill="rgb(0,0,0)" fill-opacity="1.000" d="M 430.69 273.31 c 1.24 0.56 1.86 2.68 1.87 6.38 0.01 1.50 0.07 2.60 0.19 3.31 0.30 1.80 0.24 2.74 -0.19 2.81 -2.26 0.41 -3.72 0.04 -4.40 -1.12 -0.17 -0.29 -0.40 -0.34 -0.69 -0.16 -2.69 1.85 -5.21 2.03 -7.53 0.53 -1.97 -1.26 -2.38 -2.86 -1.25 -4.79 0.74 -1.27 1.84 -1.94 3.31 -2.02 1.59 -0.08 3.00 -0.38 4.23 -0.87 0.30 -0.13 0.49 -0.36 0.55 -0.69 0.12 -0.66 -0.20 -0.87 -0.97 -0.63 -1.64 0.49 -3.24 0.81 -4.81 0.94 -1.69 0.14 -2.36 -0.49 -2.01 -1.90 0.27 -1.08 0.93 -1.78 1.98 -2.10 3.55 -1.10 6.79 -1.00 9.72 0.31 Z M 427.80409100524884 280.3944068100969 A 2.38 1.17 -23.41 0 0 423.4359089947512 282.28559318990307 A 2.38 1.17 -23.41 0 0 427.80409100524884 280.3944068100969 Z"/>
<path fill="rgb(0,0,0)" fill-opacity="1.000" d="M 446.29 273.00 c 1.51 0.80 2.41 2.04 2.70 3.72 0.63 2.77 0.32 5.05 -0.93 6.84 -1.73 2.50 -4.15 2.96 -7.25 1.38 -0.48 -0.24 -0.74 -0.10 -0.77 0.44 -0.06 1.08 -0.07 2.41 -0.04 3.99 0.02 0.99 -0.46 1.52 -1.45 1.59 -2.04 0.16 -3.15 -0.32 -3.30 -1.46 -0.49 -3.58 -0.57 -7.91 -0.25 -13.00 0.05 -2.42 0.28 -3.69 0.69 -3.81 1.87 -0.55 3.27 -0.39 4.19 0.47 0.25 0.23 0.51 0.24 0.78 0.05 1.74 -1.20 3.61 -1.28 5.63 -0.21 Z M 442.73492400699354 282.1835751873463 A 3.06 2.15 78.98 0 0 441.5650759930064 276.1764248126537 A 3.06 2.15 78.98 0 0 442.73492400699354 282.1835751873463 Z"/>
<path fill="rgb(0,0,0)" fill-opacity="1.000" d="M 549.0197800283129 279.1472881242792 A 7.46 6.84 0.44 0 1 534.100219971687 279.03271187572074 A 7.46 6.84 0.44 0 1 549.0197800283129 279.1472881242792 Z M 541.4588391666593 282.2058080020888 A 3.1 2.59 92.98 0 0 541.7811608333407 276.0141919979112 A 3.1 2.59 92.98 0 0 541.4588391666593 282.2058080020888 Z"/>
<path fill="rgb(0,0,0)" fill-opacity="1.000" d="M 555.91 273.15 c 0.36 0.41 0.77 0.47 1.23 0.17 1.12 -0.73 2.27 -1.02 3.47 -0.87 1.89 0.24 3.14 1.26 3.74 3.08 1.11 3.38 1.19 6.44 0.25 9.18 -0.11 0.32 -0.29 0.58 -0.55 0.79 -1.00 0.79 -2.34 0.79 -4.03 -0.02 -0.41 -0.19 -0.65 -0.52 -0.73 -0.97 -0.29 -1.79 -0.38 -3.93 -0.27 -6.40 0.02 -0.62 -0.27 -0.99 -0.87 -1.10 -0.45 -0.09 -0.84 0.00 -1.19 0.25 -0.26 0.20 -0.45 0.46 -0.55 0.78 -0.46 1.50 -0.57 3.66 -0.35 6.48 0.06 0.73 -0.27 1.18 -0.98 1.35 -1.14 0.27 -2.30 0.27 -3.49 -0.02 -0.39 -0.10 -0.59 -0.35 -0.59 -0.75 -0.04 -3.90 -0.04 -7.60 0.00 -11.10 0.01 -0.76 0.41 -1.12 1.19 -1.08 0.33 0.01 0.64 -0.07 0.93 -0.23 1.06 -0.62 1.99 -0.46 2.79 0.46 Z"/>
<path fill="rgb(0,0,0)" fill-opacity="1.000" d="M 457.97 272.91 c 2.42 -1.41 4.40 -0.94 5.93 1.40 2.04 2.95 2.30 5.91 0.79 8.88 -1.27 2.47 -3.82 3.15 -7.68 2.03 -0.84 -0.23 -1.05 0.03 -0.61 0.79 1.16 1.94 1.03 3.44 -0.40 4.49 -0.60 0.44 -1.86 0.47 -3.78 0.08 -0.75 -0.05 -1.14 -0.46 -1.15 -1.22 -0.11 -5.32 -0.11 -10.59 -0.01 -15.80 0.02 -0.72 1.52 -0.85 4.50 -0.37 1.01 0.16 1.81 0.07 2.41 -0.28 Z M 458.47579026083946 282.499718360179 A 3.47 1.65 90.73 0 0 458.5642097391605 275.56028163982097 A 3.47 1.65 90.73 0 0 458.47579026083946 282.499718360179 Z"/>
<path fill="rgb(0,0,0)" fill-opacity="1.000" d="M 480.76 273.81 c 0.44 3.05 0.39 6.90 -0.13 11.53 -0.03 0.22 -0.15 0.35 -0.36 0.41 -1.44 0.34 -2.60 0.38 -3.48 0.09 -0.53 -0.16 -0.79 -0.52 -0.79 -1.07 0.00 -3.51 0.00 -7.07 0.00 -10.67 0.00 -0.48 0.23 -0.77 0.68 -0.90 1.47 -0.41 2.65 -0.44 3.54 -0.08 0.31 0.13 0.49 0.36 0.54 0.69 Z"/>
<rect fill="rgb(0,0,0)" fill-opacity="1.000" x="-2.50" y="-6.50" width="5.00" height="12.99" rx="1.18" transform="translate(529.50,279.50) rotate(-0.12)"/>
<ellipse fill="rgb(47,22,24)" fill-opacity="0.000" cx="0" cy="0" rx="3.47" ry="1.65" transform="translate(458.52,279.03) rotate(90.73)"/>
<ellipse fill="rgb(47,22,24)" fill-opacity="0.000" cx="0" cy="0" rx="3.10" ry="2.59" transform="translate(541.62,279.11) rotate(92.98)"/>
<path fill="rgb(47,22,24)" fill-opacity="0.000" d="M 383.94 276.49 c 0.58 0.27 1.52 0.35 2.81 0.26 0.95 -0.07 1.30 0.14 1.06 0.63 -0.17 0.29 -0.41 0.47 -0.73 0.55 -1.01 0.34 -2.14 0.30 -3.39 -0.12 -0.99 -0.32 -1.19 -0.75 -0.59 -1.26 0.27 -0.20 0.55 -0.22 0.84 -0.06 Z"/>
<path fill="rgb(47,22,24)" fill-opacity="0.000" d="M 402.67 276.30 c 1.01 0.36 1.48 1.08 1.39 2.15 -0.21 2.75 -1.30 3.94 -3.25 3.58 -0.33 -0.06 -0.58 -0.24 -0.74 -0.53 -0.47 -0.86 -0.43 -2.21 0.12 -4.06 0.36 -1.21 1.19 -1.59 2.48 -1.14 Z"/>
<ellipse fill="rgb(47,22,24)" fill-opacity="0.000" cx="0" cy="0" rx="3.06" ry="2.15" transform="translate(442.15,279.18) rotate(78.98)"/>
<ellipse fill="rgb(47,22,24)" fill-opacity="0.000" cx="0" cy="0" rx="2.38" ry="1.17" transform="translate(425.62,281.34) rotate(-23.41)"/>
<ellipse fill="rgb(47,22,24)" fill-opacity="0.000" cx="0" cy="0" rx="2.38" ry="1.11" transform="translate(506.48,281.47) rotate(-26.32)"/>
<path fill="rgb(0,0,0)" fill-opacity="1.000" d="M 427.79 312.00 c 0.14 2.01 0.28 3.39 0.42 4.15 0.14 0.71 0.54 0.94 1.21 0.68 2.41 -0.93 4.33 -1.02 5.77 -0.27 1.21 0.63 1.81 2.86 1.81 6.69 0.00 1.25 0.00 2.61 0.00 4.08 0.00 0.97 -0.48 1.51 -1.45 1.61 -1.90 0.20 -3.12 0.08 -3.67 -0.37 -0.25 -0.21 -0.41 -0.48 -0.47 -0.81 -0.38 -2.02 -0.37 -4.08 0.03 -6.19 0.18 -0.94 -0.21 -1.39 -1.17 -1.33 -1.73 0.09 -2.48 1.09 -2.27 3.01 0.37 3.37 0.27 5.18 -0.31 5.44 -1.03 0.45 -2.29 0.53 -3.76 0.22 -0.33 -0.06 -0.51 -0.26 -0.53 -0.60 -0.19 -4.32 -0.32 -9.43 -0.40 -15.31 -0.02 -1.65 0.56 -2.34 1.76 -2.09 0.33 0.06 0.64 0.03 0.95 -0.10 0.67 -0.27 1.24 -0.17 1.70 0.33 0.23 0.24 0.35 0.53 0.38 0.86 Z"/>
<path fill="rgb(0,0,0)" fill-opacity="1.000" d="M 507.19 310.81 c 0.54 -0.02 0.81 1.04 0.81 3.19 0.00 4.00 0.00 8.12 0.00 12.36 0.00 0.63 -0.30 1.04 -0.90 1.22 -2.15 0.64 -3.41 0.66 -3.78 0.04 -0.17 -0.29 -0.25 -0.60 -0.24 -0.93 0.10 -3.74 0.00 -6.70 -0.32 -8.88 -0.05 -0.33 -0.24 -0.48 -0.57 -0.44 -0.62 0.07 -1.34 0.43 -2.17 1.06 -1.26 0.96 -1.93 0.65 -2.02 -0.93 -0.14 -1.59 0.30 -2.65 1.31 -3.19 1.31 -0.84 2.56 -1.67 3.75 -2.50 1.04 -0.71 2.42 -1.05 4.13 -1.00 Z"/>
<path fill="rgb(0,0,0)" fill-opacity="1.000" d="M 523.50 310.75 c 0.92 -0.17 1.58 0.75 2.00 2.75 0.28 1.41 0.28 2.83 0.00 4.25 -0.31 1.58 0.22 2.68 1.58 3.31 0.57 0.26 0.86 0.71 0.89 1.33 0.06 1.63 -0.66 2.52 -2.16 2.67 -1.20 0.13 -1.37 0.67 -0.50 1.63 0.99 0.80 0.85 1.24 -0.42 1.32 -1.39 0.08 -2.38 0.05 -2.97 -0.08 -0.32 -0.08 -0.54 -0.28 -0.65 -0.59 -0.14 -0.39 -0.30 -0.92 -0.47 -1.59 -0.13 -0.50 -0.45 -0.75 -0.97 -0.75 -2.64 0.00 -4.96 0.00 -6.98 0.00 -0.69 0.00 -1.06 -0.34 -1.12 -1.03 -0.02 -0.87 0.30 -1.80 0.96 -2.78 1.82 -2.57 3.69 -4.95 5.62 -7.13 1.59 -1.80 3.32 -2.90 5.19 -3.31 Z M 520.06 320.81 c 0.87 -0.27 1.16 -1.27 0.87 -3.00 -0.09 -0.54 -0.35 -0.63 -0.77 -0.28 -1.47 1.26 -2.36 2.18 -2.68 2.78 -0.15 0.29 -0.08 0.51 0.22 0.66 0.47 0.24 1.26 0.19 2.36 -0.16 Z"/>
<path fill="rgb(0,0,0)" fill-opacity="1.000" d="M 534.34 310.95 c 0.28 0.09 0.38 0.28 0.30 0.57 -1.60 5.71 -2.77 10.81 -3.50 15.30 -0.05 0.33 -0.20 0.61 -0.44 0.84 -0.63 0.60 -1.38 0.58 -2.24 -0.05 -0.15 -0.11 -0.21 -0.26 -0.17 -0.45 1.23 -5.94 2.53 -11.10 3.90 -15.47 0.27 -0.88 0.99 -1.13 2.15 -0.74 Z"/>
<path fill="rgb(0,0,0)" fill-opacity="1.000" d="M 234.47 311.01 c 1.48 -0.13 2.77 -0.08 3.89 0.16 0.94 0.20 1.29 0.76 1.05 1.70 -0.41 1.62 -1.20 2.37 -2.35 2.25 -0.33 -0.04 -0.54 0.10 -0.63 0.43 -0.13 0.45 0.29 0.61 1.25 0.49 0.68 -0.09 1.08 0.21 1.21 0.88 0.36 1.90 -0.32 2.92 -2.04 3.07 -0.52 0.04 -0.78 0.32 -0.79 0.84 -0.04 2.53 -0.08 4.98 -0.11 7.36 -0.01 0.33 -0.17 0.54 -0.49 0.63 -0.85 0.23 -2.02 0.25 -3.53 0.06 -0.33 -0.05 -0.55 -0.23 -0.66 -0.54 -0.35 -1.04 -0.44 -2.48 -0.27 -4.34 0.20 -2.09 0.05 -3.27 -0.44 -3.56 -1.56 -0.92 -2.04 -2.06 -1.45 -3.42 0.13 -0.30 0.33 -0.56 0.59 -0.77 0.61 -0.48 1.10 -1.34 1.47 -2.57 0.50 -1.64 1.60 -2.53 3.30 -2.67 Z"/>
<path fill="rgb(0,0,0)" fill-opacity="1.000" d="M 359.25 311.00 c 1.85 0.33 2.77 0.67 2.75 1.00 -0.15 2.91 -0.07 5.31 0.23 7.19 0.06 0.33 0.24 0.55 0.56 0.66 0.24 0.08 0.46 -0.05 0.65 -0.41 0.71 -1.37 1.38 -2.37 2.02 -3.02 0.23 -0.24 0.52 -0.36 0.85 -0.38 1.11 -0.06 2.56 -0.07 4.37 -0.04 1.39 0.03 1.56 0.49 0.50 1.39 -1.13 0.95 -2.14 1.99 -3.06 3.10 -0.45 0.55 -0.47 1.12 -0.06 1.70 1.39 1.95 2.63 3.75 3.74 5.41 0.66 1.00 0.40 1.46 -0.80 1.40 -0.76 -0.04 -1.45 0.01 -2.07 0.15 -1.63 0.37 -2.73 -0.23 -3.30 -1.79 -0.45 -1.23 -0.95 -2.18 -1.49 -2.83 -0.39 -0.47 -0.73 -0.44 -1.02 0.09 -0.74 1.32 -1.14 2.59 -1.18 3.82 0.00 0.05 -0.90 0.24 -2.69 0.56 -1.60 0.34 -2.35 -0.41 -2.25 -2.25 0.40 -4.50 0.40 -9.00 0.00 -13.50 -0.16 -1.84 0.59 -2.59 2.25 -2.25 Z"/>
<rect fill="rgb(0,0,0)" fill-opacity="1.000" x="-2.85" y="-1.80" width="5.69" height="3.61" rx="1.02" transform="translate(407.19,312.98) rotate(-3.21)"/>
<path fill="rgb(0,0,0)" fill-opacity="1.000" d="M 544.94 310.99 c 0.64 0.07 0.98 0.42 1.00 1.07 0.16 5.21 0.13 10.22 -0.10 15.00 -0.02 0.34 -0.18 0.56 -0.50 0.68 -1.94 0.71 -3.26 0.65 -3.95 -0.17 -0.22 -0.25 -0.32 -0.55 -0.32 -0.88 0.06 -4.06 -0.05 -7.03 -0.31 -8.88 -0.05 -0.33 -0.23 -0.45 -0.55 -0.35 -0.67 0.20 -1.67 0.65 -3.02 1.34 -0.65 0.34 -1.03 0.15 -1.13 -0.58 -0.22 -1.68 -0.09 -2.77 0.41 -3.29 0.23 -0.25 0.50 -0.42 0.82 -0.52 1.50 -0.37 2.88 -1.11 4.15 -2.22 0.96 -0.85 2.13 -1.24 3.50 -1.20 Z"/>
<path fill="rgb(0,0,0)" fill-opacity="1.000" d="M 552.06 311.00 c 4.29 0.00 8.44 0.00 12.44 0.00 0.33 0.00 0.66 0.06 0.97 0.17 0.94 0.36 1.10 0.94 0.47 1.77 -3.46 4.49 -5.67 9.00 -6.65 13.51 -0.07 0.32 -0.18 0.63 -0.35 0.92 -0.39 0.68 -1.63 0.85 -3.72 0.50 -0.55 -0.09 -0.77 -0.41 -0.67 -0.97 0.65 -3.39 1.58 -6.20 2.77 -8.40 0.40 -0.72 0.91 -1.33 1.55 -1.84 0.85 -0.67 1.17 -1.10 0.95 -1.28 -0.26 -0.21 -0.55 -0.33 -0.88 -0.34 -1.88 -0.09 -4.12 -0.07 -6.73 0.05 -1.06 0.05 -1.29 -0.36 -0.69 -1.23 0.39 -0.58 0.39 -1.20 -0.02 -1.86 -0.42 -0.67 -0.23 -1.00 0.56 -1.00 Z"/>
<path fill="rgb(0,0,0)" fill-opacity="1.000" d="M 418.60 312.35 c 0.53 0.53 0.77 1.39 0.73 2.59 -0.01 0.33 0.13 0.59 0.41 0.76 1.36 0.84 1.67 2.02 0.92 3.54 -0.15 0.30 -0.37 0.51 -0.68 0.65 -0.50 0.23 -0.74 1.01 -0.73 2.36 0.01 1.30 0.09 2.28 0.22 2.95 0.06 0.32 0.25 0.55 0.55 0.68 1.18 0.50 1.40 1.43 0.67 2.81 0.00 0.00 -1.07 0.11 -3.19 0.31 -2.03 0.19 -3.28 -0.47 -3.75 -2.00 -1.42 -4.63 -1.92 -7.96 -1.50 -10.00 0.67 -3.22 2.50 -4.88 5.50 -4.98 0.33 -0.01 0.62 0.10 0.85 0.33 Z"/>
<path fill="rgb(0,0,0)" fill-opacity="1.000" d="M 487.77 313.65 c 0.30 0.68 0.37 1.74 0.22 3.19 -0.08 0.79 0.27 1.17 1.07 1.15 1.11 -0.02 2.07 -0.01 2.88 0.04 0.33 0.02 0.60 0.16 0.81 0.42 0.47 0.58 0.55 1.42 0.24 2.51 -0.31 1.05 -0.99 1.46 -2.06 1.24 -2.31 -0.49 -3.29 0.11 -2.93 1.80 0.55 2.62 -0.47 3.62 -3.08 2.98 -0.75 -0.18 -1.03 -1.31 -0.84 -3.38 0.10 -1.14 -0.41 -1.62 -1.54 -1.43 -2.25 0.37 -3.08 -0.74 -2.50 -3.34 0.16 -0.70 0.59 -1.00 1.30 -0.89 1.79 0.25 2.67 -0.06 2.66 -0.94 -0.02 -1.39 0.05 -2.46 0.21 -3.20 0.07 -0.32 0.23 -0.60 0.48 -0.81 0.61 -0.54 1.42 -0.54 2.43 -0.03 0.30 0.15 0.51 0.38 0.65 0.69 Z"/>
<path fill="rgb(0,0,0)" fill-opacity="1.000" d="M 471.59 313.37 c 0.47 0.53 0.60 1.65 0.38 3.37 -0.11 0.84 0.26 1.26 1.11 1.26 1.11 0.00 2.00 0.00 2.67 0.00 0.33 0.00 0.64 0.10 0.91 0.29 0.43 0.30 0.53 1.18 0.31 2.63 -0.11 0.79 -0.57 1.16 -1.37 1.10 -1.48 -0.10 -2.45 -0.09 -2.93 0.04 -0.32 0.08 -0.52 0.29 -0.61 0.61 -0.13 0.47 -0.15 1.36 -0.05 2.67 0.06 0.86 -0.34 1.37 -1.18 1.54 -1.88 0.35 -2.83 -0.02 -2.83 -1.13 0.00 -1.30 -0.06 -2.30 -0.16 -3.00 -0.21 -0.59 -0.62 -0.86 -1.25 -0.82 -1.98 0.16 -2.81 -0.69 -2.48 -2.55 0.19 -1.06 0.82 -1.51 1.88 -1.34 1.39 0.25 2.06 -0.59 2.01 -2.54 -0.05 -1.93 0.87 -2.78 2.75 -2.56 0.33 0.04 0.61 0.18 0.84 0.43 Z"/>
<path fill="rgb(0,0,0)" fill-opacity="1.000" d="M 261.81 316.44 c 1.24 0.30 1.89 1.08 1.96 2.35 0.18 3.47 0.46 6.54 0.84 9.22 0.12 0.89 -0.25 1.25 -1.14 1.08 -3.04 -0.43 -5.95 -0.46 -8.72 -0.09 -2.64 0.35 -4.15 -0.74 -4.54 -3.25 -0.33 -2.15 0.58 -3.31 2.75 -3.49 1.24 -0.35 2.75 -0.77 4.54 -1.26 1.42 -0.39 1.81 -0.95 1.19 -1.69 -0.26 -0.36 -1.22 -0.11 -2.88 0.75 -1.11 0.58 -2.17 0.84 -3.19 0.76 -0.98 -0.06 -1.44 -0.59 -1.37 -1.57 0.02 -1.50 0.52 -2.42 1.50 -2.75 2.94 -0.99 5.96 -1.01 9.06 -0.06 Z"/>
<path fill="rgb(0,0,0)" fill-opacity="1.000" d="M 300.94 316.06 c 2.47 0.79 3.93 2.83 4.40 6.12 0.17 1.01 -0.26 1.54 -1.29 1.58 -2.53 0.10 -4.95 0.27 -7.24 0.50 -0.33 0.04 -0.52 0.22 -0.58 0.55 -0.14 0.93 0.53 1.24 2.02 0.94 2.25 -0.45 4.25 -0.70 6.00 -0.74 0.33 -0.01 0.60 0.13 0.79 0.40 0.41 0.60 0.17 1.23 -0.73 1.90 -2.34 1.75 -5.07 2.40 -8.17 1.94 -3.02 -0.32 -4.71 -1.98 -5.08 -4.98 -0.57 -3.85 0.35 -6.42 2.75 -7.71 2.39 -1.28 4.77 -1.45 7.13 -0.50 Z"/>
<path fill="rgb(0,0,0)" fill-opacity="1.000" d="M 329.7695760688788 322.62357097706524 L 329.78570096948306 322.0237876932198 A 6.44 6.44 0 0 1 336.3964488159111 315.75918771309756 L 338.12582395099906 315.80568117650665 A 6.44 6.44 0 0 1 344.3904239311212 322.4164290229347 L 344.3742990305169 323.0162123067802 A 6.44 6.44 0 0 1 337.76355118408884 329.2808122869024 L 336.0341760490009 329.2343188234933 A 6.44 6.44 0 0 1 329.7695760688788 322.62357097706524 Z M 337.2130466968654 326.0781945175934 A 3.54 2.17 88.17 0 0 336.98695330313467 319.00180548240667 A 3.54 2.17 88.17 0 0 337.2130466968654 326.0781945175934 Z"/>
<path fill="rgb(0,0,0)" fill-opacity="1.000" d="M 453.75 315.75 c 2.23 -0.14 4.28 0.41 6.14 1.67 1.60 1.09 1.58 2.14 -0.08 3.14 -1.15 0.71 -2.73 0.47 -4.72 -0.70 -1.40 -0.82 -2.41 -0.48 -3.01 1.03 -0.48 1.20 -0.42 2.42 0.17 3.66 0.71 1.48 1.71 1.72 3.00 0.70 1.52 -1.20 3.13 -1.59 4.83 -1.18 0.32 0.08 0.59 0.25 0.81 0.50 0.81 0.97 0.58 1.92 -0.70 2.87 -2.83 2.08 -5.89 2.56 -9.20 1.45 -2.05 -0.58 -3.36 -1.90 -3.93 -3.95 -0.64 -2.34 -0.31 -4.63 1.00 -6.88 0.79 -1.35 2.68 -2.12 5.69 -2.31 Z"/>
<path fill="rgb(0,0,0)" fill-opacity="1.000" d="M 245.99 316.40 c 1.35 -0.28 2.44 -0.35 3.29 -0.22 0.75 0.12 1.08 0.56 0.97 1.32 -0.19 1.34 -1.09 2.19 -2.69 2.54 -1.03 0.23 -1.69 0.86 -1.98 1.88 -0.53 1.92 -0.73 3.86 -0.60 5.83 0.03 0.40 -0.15 0.66 -0.53 0.78 -1.70 0.54 -3.00 0.76 -3.89 0.66 -0.37 -0.04 -0.56 -1.27 -0.56 -3.69 0.00 -2.67 0.00 -5.39 0.00 -8.16 0.00 -0.61 0.30 -0.99 0.90 -1.12 1.36 -0.31 2.73 -0.26 4.12 0.14 0.32 0.09 0.64 0.11 0.97 0.04 Z"/>
<path fill="rgb(0,0,0)" fill-opacity="1.000" d="M 272.81 316.37 c 1.98 -0.44 3.77 -0.54 5.38 -0.31 0.61 0.09 0.99 0.42 1.12 0.98 0.13 0.31 0.32 0.35 0.57 0.14 1.22 -1.02 3.18 -1.41 5.87 -1.18 1.10 0.10 1.85 0.66 2.24 1.70 1.09 2.90 1.39 6.36 0.88 10.37 -0.04 0.33 -0.21 0.55 -0.52 0.67 -1.39 0.54 -2.91 0.57 -4.56 0.09 -0.32 -0.10 -0.52 -0.30 -0.60 -0.63 -0.49 -1.87 -0.31 -4.07 0.52 -6.59 0.18 -0.54 0.01 -0.93 -0.52 -1.15 -1.64 -0.69 -2.65 -0.34 -3.05 1.06 -0.09 0.32 -0.10 0.64 -0.01 0.96 0.37 1.30 0.37 2.57 0.01 3.79 -0.09 0.32 -0.11 0.64 -0.05 0.97 0.27 1.50 -0.51 2.09 -2.34 1.76 -1.81 -0.32 -2.70 -0.68 -2.69 -1.06 0.11 -2.44 0.04 -4.83 -0.21 -7.17 -0.09 -0.81 -0.50 -1.05 -1.25 -0.72 -1.07 0.45 -1.60 1.35 -1.60 2.70 0.00 1.96 -0.02 3.77 -0.06 5.44 -0.01 0.26 -0.83 0.53 -2.44 0.81 -1.56 0.25 -2.37 -0.02 -2.44 -0.81 -0.31 -3.86 -0.32 -7.57 -0.04 -11.13 0.03 -0.33 0.19 -0.57 0.49 -0.72 1.11 -0.55 2.55 -0.57 4.32 -0.04 0.32 0.09 0.65 0.12 0.98 0.07 Z"/>
<path fill="rgb(0,0,0)" fill-opacity="1.000" d="M 306.92 316.15 c 2.89 -0.53 4.50 0.26 4.83 2.35 0.21 1.30 0.30 2.39 0.27 3.25 -0.01 0.33 0.07 0.64 0.24 0.93 0.39 0.66 0.78 0.49 1.18 -0.49 0.70 -1.77 1.18 -3.43 1.42 -5.01 0.05 -0.33 0.21 -0.60 0.47 -0.80 0.87 -0.68 2.16 -0.75 3.88 -0.22 0.32 0.10 0.55 0.30 0.71 0.59 0.64 1.49 1.28 3.22 1.89 5.19 0.29 0.91 0.58 1.23 0.88 0.95 0.21 -0.26 0.31 -0.56 0.30 -0.89 -0.03 -1.80 0.38 -3.58 1.23 -5.36 0.15 -0.30 0.38 -0.49 0.71 -0.56 1.05 -0.24 2.24 -0.21 3.57 0.09 0.37 0.09 0.50 0.31 0.38 0.67 -1.47 4.55 -2.81 8.34 -4.01 11.38 -0.12 0.31 -0.33 0.54 -0.62 0.70 -1.46 0.76 -2.77 0.59 -3.95 -0.52 -0.24 -0.22 -0.42 -0.49 -0.54 -0.80 -0.61 -1.58 -1.17 -3.18 -1.68 -4.81 -0.09 -0.32 -0.30 -0.53 -0.62 -0.63 -0.26 -0.07 -0.41 0.12 -0.46 0.59 -0.24 2.32 -0.83 4.16 -1.78 5.52 -0.19 0.28 -0.44 0.47 -0.75 0.58 -2.48 0.86 -4.11 0.06 -4.91 -2.41 -1.00 -3.14 -2.10 -6.16 -3.27 -9.05 -0.33 -0.69 -0.11 -1.10 0.63 -1.24 Z"/>
<path fill="rgb(0,0,0)" fill-opacity="1.000" d="M 354.69 316.06 c 1.17 -0.05 1.54 0.84 1.09 2.70 -0.18 0.63 -0.60 1.00 -1.25 1.10 -1.93 0.30 -2.77 1.60 -2.53 3.89 0.15 1.40 0.15 2.81 0.00 4.23 0.00 0.67 -0.33 1.01 -1.00 1.02 -1.59 0.03 -2.88 0.02 -3.88 -0.03 -1.12 -0.06 -1.56 -0.64 -1.33 -1.74 0.71 -3.36 0.82 -6.30 0.32 -8.80 -0.26 -1.30 0.27 -2.02 1.59 -2.16 1.31 0.06 2.43 0.12 3.36 0.17 1.19 -0.19 2.40 -0.32 3.63 -0.38 Z"/>
<path fill="rgb(0,0,0)" fill-opacity="1.000" d="M 380.69 316.03 c 1.55 -0.14 2.68 -0.13 3.39 0.04 0.32 0.08 0.58 0.26 0.76 0.53 0.93 1.39 1.32 3.11 1.19 5.15 -0.02 0.33 0.05 0.65 0.20 0.94 0.45 0.84 0.85 0.67 1.21 -0.50 0.62 -2.04 1.12 -3.83 1.50 -5.39 0.08 -0.32 0.28 -0.53 0.60 -0.62 1.41 -0.40 2.64 -0.41 3.68 -0.04 0.31 0.11 0.54 0.32 0.69 0.62 0.80 1.62 1.44 3.24 1.92 4.89 0.56 1.91 0.95 1.88 1.17 -0.11 0.15 -1.49 0.54 -3.07 1.14 -4.76 0.12 -0.31 0.33 -0.53 0.64 -0.65 0.53 -0.21 1.60 -0.23 3.20 -0.05 0.88 0.10 1.16 0.56 0.83 1.39 -1.18 2.96 -2.37 6.32 -3.58 10.08 -0.24 0.77 -0.77 1.22 -1.57 1.34 -1.96 0.32 -3.21 0.20 -3.75 -0.34 -0.23 -0.24 -0.40 -0.52 -0.52 -0.83 -0.67 -1.86 -1.20 -3.51 -1.58 -4.95 -0.25 -0.93 -0.49 -0.93 -0.71 0.01 -0.50 2.07 -1.00 3.72 -1.50 4.97 -0.28 0.71 -0.81 1.11 -1.57 1.21 -2.33 0.28 -3.78 -0.60 -4.34 -2.65 -0.88 -3.22 -2.09 -6.29 -3.62 -9.20 -0.31 -0.66 -0.10 -1.02 0.62 -1.08 Z"/>
<path fill="rgb(0,0,0)" fill-opacity="1.000" d="M 409.10 316.43 c 0.60 0.19 0.90 0.60 0.90 1.23 0.00 3.39 0.00 6.86 0.00 10.39 0.00 0.40 -0.19 0.64 -0.58 0.74 -1.37 0.33 -2.52 0.38 -3.46 0.15 -0.72 -0.18 -1.06 -0.63 -1.03 -1.37 0.20 -4.59 0.11 -7.93 -0.28 -10.02 -0.06 -0.32 0.02 -0.61 0.24 -0.86 0.71 -0.82 2.11 -0.91 4.21 -0.26 Z"/>
<path fill="rgb(47,22,24)" fill-opacity="0.000" d="M 520.93 317.81 c 0.29 1.73 0.00 2.73 -0.87 3.00 -1.10 0.35 -1.89 0.40 -2.36 0.16 -0.30 -0.15 -0.37 -0.37 -0.22 -0.66 0.32 -0.60 1.21 -1.52 2.68 -2.78 0.42 -0.35 0.68 -0.26 0.77 0.28 Z"/>
<ellipse fill="rgb(47,22,24)" fill-opacity="0.000" cx="0" cy="0" rx="3.54" ry="2.17" transform="translate(337.10,322.54) rotate(88.17)"/>
</svg>